<svg width="29" height="31" viewBox="0 0 29 31" fill="none" xmlns="http://www.w3.org/2000/svg">
<path d="M10.8365 10.9177V8.72941C10.8365 8.32657 11.154 8 11.5457 8H20.0556C20.4472 8 20.7647 8.32657 20.7647 8.72941V18.9412C20.7647 19.3441 20.4472 19.6706 20.0556 19.6706H17.9281V21.8582C17.9281 22.2614 17.609 22.5883 17.2141 22.5883H8.71388C8.31954 22.5883 8 22.264 8 21.8582L8.00184 11.6477C8.00191 11.2445 8.32099 10.9177 8.71584 10.9177H10.8365ZM9.42003 12.3765L9.41845 21.1295H16.5098V12.3765H9.42003ZM12.2548 10.9177H17.9281V18.2118H19.3464V9.45883H12.2548V10.9177Z" fill="white"/>
</svg>
