<svg width="27" height="30" viewBox="0 0 27 30" fill="none" xmlns="http://www.w3.org/2000/svg">
<path d="M16.8675 25.3987H13.4432C12.7252 25.3987 12.0082 25.3466 11.2978 25.2429L10.5471 25.1333" stroke="#0682C7" stroke-miterlimit="10" stroke-linecap="round" stroke-linejoin="round"/>
<path d="M3.7646 23.6571V27.5675C3.7646 27.9802 3.42996 28.3149 3.01709 28.3149H1.74751C1.33465 28.3149 1 27.9802 1 27.5675V19.4593C1 19.0465 1.33465 18.7118 1.74751 18.7118H3.01709C3.42996 18.7118 3.7646 19.0465 3.7646 19.4593V21.6748" stroke="#0682C7" stroke-miterlimit="10" stroke-linecap="round" stroke-linejoin="round"/>
<path d="M3.76465 27.0268L8.57765 28.8183C9.05966 28.9977 9.56984 29.0896 10.0842 29.0896H15.9331C16.7516 29.0896 17.5533 28.857 18.2446 28.4189L25.5681 24.2872C26.0513 23.8582 26.1408 23.1371 25.7773 22.6029C25.3796 22.0184 24.7217 21.9168 23.9977 22.2592L16.8676 25.3985L16.876 24.72C16.7816 23.7705 16.0505 23.0084 15.1058 22.8748L10.7637 22.3748C9.76211 22.2331 9.26158 21.8974 8.38843 21.3867C7.19632 20.6893 5.84009 20.3218 4.45898 20.3218H3.76465" stroke="#0682C7" stroke-miterlimit="10" stroke-linecap="round" stroke-linejoin="round"/>
<path d="M14.6127 1.53252C14.8027 1.76857 15.0629 1.93806 15.3556 2.01648C15.6483 2.09491 15.9584 2.07821 16.2409 1.96879C17.0912 1.63957 18.0279 2.18045 18.1679 3.0813C18.2144 3.38074 18.355 3.65762 18.5693 3.8719C18.7835 4.08617 19.0604 4.22674 19.3599 4.27327C20.2607 4.41327 20.8016 5.35001 20.4724 6.20022C20.3629 6.4828 20.3462 6.79286 20.4247 7.08557C20.5031 7.37827 20.6726 7.63845 20.9086 7.82846C21.6189 8.40014 21.6189 9.4818 20.9086 10.0535C20.6726 10.2435 20.5031 10.5037 20.4247 10.7964C20.3462 11.0891 20.3629 11.3991 20.4724 11.6817C20.8016 12.5319 20.2607 13.4687 19.3599 13.6087C19.0604 13.6552 18.7835 13.7957 18.5692 14.01C18.355 14.2243 18.2144 14.5012 18.1679 14.8006C18.0279 15.7015 17.0912 16.2424 16.2409 15.9131C15.9584 15.8037 15.6483 15.787 15.3556 15.8654C15.0629 15.9439 14.8027 16.1134 14.6127 16.3494C14.041 17.0596 12.9594 17.0596 12.3877 16.3494C12.1977 16.1134 11.9375 15.9439 11.6448 15.8654C11.3521 15.787 11.042 15.8037 10.7594 15.9131C9.90923 16.2424 8.97249 15.7015 8.83249 14.8006C8.78598 14.5012 8.64542 14.2243 8.43114 14.01C8.21685 13.7957 7.93997 13.6552 7.64052 13.6087C6.73967 13.4687 6.19879 12.5319 6.52801 11.6817C6.63744 11.3991 6.65414 11.0891 6.57572 10.7964C6.49729 10.5037 6.32779 10.2435 6.09174 10.0535C5.38153 9.4818 5.38153 8.40014 6.09174 7.82846C6.32779 7.63845 6.49729 7.37827 6.57572 7.08557C6.65414 6.79286 6.63744 6.4828 6.52801 6.20022C6.19879 5.35001 6.73967 4.41327 7.64052 4.27327C7.93996 4.22674 8.21684 4.08617 8.43112 3.8719C8.64539 3.65762 8.78596 3.38074 8.83249 3.0813C8.97249 2.18045 9.90923 1.63957 10.7594 1.96879C11.042 2.07821 11.3521 2.09491 11.6448 2.01648C11.9375 1.93806 12.1977 1.76857 12.3877 1.53252C12.9594 0.822309 14.041 0.822309 14.6127 1.53252Z" stroke="#0682C7" stroke-miterlimit="10" stroke-linecap="round" stroke-linejoin="round"/>
<path d="M8.23595 7.94939C8.70099 5.46523 10.881 3.58514 13.5002 3.58514C16.4582 3.58514 18.856 5.98306 18.856 8.94101C18.856 11.899 16.4582 14.2969 13.5002 14.2969C10.8807 14.2969 8.70054 12.4164 8.23584 9.93178" stroke="#0682C7" stroke-miterlimit="10" stroke-linecap="round" stroke-linejoin="round"/>
<path d="M13.6042 10.6463L15.3081 11.7727C15.4539 11.8689 15.641 11.733 15.5944 11.5647L15.0498 9.59605C15.0399 9.56035 15.0407 9.52252 15.0522 9.48729C15.0636 9.45205 15.0852 9.42096 15.1142 9.39789L16.7119 8.12538C16.8485 8.01658 16.777 7.79655 16.6026 7.78881L14.562 7.69849C14.525 7.69684 14.4893 7.68436 14.4593 7.66258C14.4293 7.64081 14.4064 7.61071 14.3934 7.57602L13.6769 5.66321C13.6156 5.4997 13.3843 5.4997 13.323 5.66321L12.6066 7.57602C12.5936 7.6107 12.5707 7.6408 12.5407 7.66258C12.5107 7.68435 12.475 7.69684 12.438 7.69849L10.3974 7.78881C10.2229 7.79655 10.1515 8.01658 10.2881 8.12538L11.8858 9.39789C11.9148 9.42098 11.9363 9.45207 11.9478 9.4873C11.9592 9.52253 11.9601 9.56035 11.9502 9.59605L11.4056 11.5647C11.359 11.733 11.5462 11.8689 11.6919 11.7727L13.3958 10.6463C13.4267 10.6259 13.4629 10.6151 13.5 10.6151C13.537 10.6151 13.5732 10.6259 13.6042 10.6463Z" stroke="#0682C7" stroke-miterlimit="10" stroke-linecap="round" stroke-linejoin="round"/>
<path d="M8.73445 14.4595L6.64801 18.5052C6.55628 18.6831 6.71527 18.8866 6.90997 18.8408L9.23277 18.2936C9.28713 18.2808 9.34427 18.2878 9.39391 18.3134C9.44355 18.339 9.48241 18.3815 9.5035 18.4332L10.4045 20.6429C10.4801 20.8282 10.7381 20.8397 10.8298 20.6619L12.8578 16.7296" stroke="#0682C7" stroke-miterlimit="10" stroke-linecap="round" stroke-linejoin="round"/>
<path d="M14.1423 16.7297L16.1703 20.6619C16.2619 20.8397 16.52 20.8282 16.5955 20.6429L17.4965 18.4332C17.5176 18.3815 17.5565 18.339 17.6061 18.3134C17.6558 18.2878 17.7129 18.2808 17.7673 18.2936L20.0901 18.8408C20.2848 18.8866 20.4438 18.6831 20.3521 18.5052L18.2656 14.4595" stroke="#0682C7" stroke-miterlimit="10" stroke-linecap="round" stroke-linejoin="round"/>
</svg>
