<svg width="35" height="35" viewBox="0 0 35 35" fill="none" xmlns="http://www.w3.org/2000/svg">
<path d="M34.993 19.4196C34.9512 18.4497 34.0028 17.6751 32.1688 17.1169C30.7462 16.6912 28.94 16.433 26.9874 16.3911V8.94555C26.9805 8.81994 26.9456 8.70131 26.8828 8.59664C26.6876 7.7523 25.7462 7.06845 24.0795 6.56603C22.5105 6.09152 20.4603 5.83333 18.3054 5.83333C16.1576 5.83333 14.1283 6.09152 12.5872 6.56603C11.325 6.9568 9.81172 7.68252 9.81172 8.93159C9.81172 9.00835 9.81869 9.08511 9.83264 9.16187L9.90934 12.3439C5.37657 11.4786 1.00418 14.4582 0.146444 18.987C0.0488145 19.5034 0 20.0197 0 20.5431C0 25.1486 3.74477 28.8958 8.34728 28.8958C10.265 28.8958 12.1199 28.2399 13.6053 27.0257C14.9093 27.3328 16.4435 27.5002 18.0683 27.5142C18.424 29.4471 22.6081 30.3333 26.5063 30.3333C28.6541 30.3333 30.6834 30.0682 32.2245 29.5867C33.4868 29.1959 35 28.4632 35 27.2141V19.5522C35 19.5103 35 19.4615 34.993 19.4196ZM25.53 12.8044C25.53 12.8951 25.1953 13.3766 23.682 13.8372C22.2664 14.2628 20.3068 14.514 18.3124 14.514C16.59 14.514 14.9024 14.3326 13.5635 13.9907C13.5425 13.9837 13.5286 13.9837 13.5077 13.9767C12.8452 13.4534 12.113 13.0347 11.325 12.7416L11.2761 10.7738C11.7573 11.018 12.2594 11.2134 12.7824 11.353C14.2957 11.7926 16.2552 12.0299 18.3124 12.0299C20.4603 12.0299 22.5174 11.7717 24.0865 11.2972C24.6095 11.1436 25.1185 10.9413 25.5997 10.6901V12.5183C25.523 12.616 25.53 12.7067 25.53 12.8044ZM13.0056 7.91279C14.4142 7.48015 16.2971 7.23592 18.3054 7.23592C20.2999 7.23592 22.2594 7.48015 23.675 7.91279C25.1883 8.37334 25.523 8.84785 25.523 8.93857C25.523 9.03626 25.1813 9.51775 23.6681 9.97132C22.2524 10.397 20.2999 10.6412 18.3054 10.6412C16.3808 10.6412 14.5537 10.4179 13.166 10.0132C11.6667 9.58055 11.2483 9.10604 11.2134 8.95252C11.2134 8.93857 11.2064 8.93857 11.2064 8.93857C11.2134 8.80599 11.5342 8.35939 13.0056 7.91279ZM13.0265 25.6929C10.1883 28.2748 5.78801 28.0724 3.20781 25.2324C0.627615 22.3923 0.829846 17.9891 3.66806 15.4072C4.94421 14.2419 6.61785 13.5999 8.34728 13.5999C9.04463 13.5999 9.73501 13.7046 10.4045 13.907C12.8243 14.6606 14.6444 16.6703 15.1604 19.1475C15.251 19.608 15.2999 20.0825 15.2999 20.5501C15.3068 22.5109 14.477 24.3741 13.0265 25.6929ZM14.7978 25.8464C15.3626 25.1556 15.8159 24.381 16.1367 23.5506C16.7294 23.5995 17.3431 23.6344 17.9847 23.6414V23.767L18.0265 26.1325C16.9456 26.1186 15.8647 26.0209 14.7978 25.8464ZM16.6597 19.7197C17.0642 19.7476 17.4895 19.7616 17.9219 19.7685L17.9637 22.2388C17.4756 22.2318 16.9944 22.2109 16.5342 22.176C16.6388 21.6387 16.6946 21.0874 16.6946 20.5431C16.6946 20.271 16.6806 19.9988 16.6597 19.7197ZM18.3752 18.3799H18.3054C17.636 18.3799 16.9874 18.352 16.3877 18.3101C16.1227 17.3751 15.7043 16.4958 15.1395 15.7143C16.1855 15.8469 17.2385 15.9166 18.2985 15.9166C20.4533 15.9166 22.5105 15.6584 24.0795 15.1839C24.6025 15.0304 25.1046 14.8281 25.5858 14.5838V16.4121C22.5941 16.4958 19.5188 17.1238 18.3752 18.3799ZM19.2957 19.4894C19.2957 19.4824 19.2957 19.4755 19.3026 19.4615C19.3654 19.2731 19.8605 18.8125 21.304 18.4078C22.6569 18.024 24.4212 17.8147 26.2761 17.8147H26.3947C28.3891 17.8147 30.3417 18.0449 31.7643 18.4776C33.2496 18.9242 33.5983 19.3847 33.6053 19.4894V19.4964C33.5983 19.6011 33.2497 20.0825 31.7015 20.5431C30.272 20.9688 28.3891 21.199 26.4017 21.199C24.477 21.199 22.6499 20.9757 21.2622 20.578C19.7629 20.1453 19.3515 19.6639 19.3096 19.5173L19.2957 19.4894ZM31.8201 28.2608C30.4114 28.7005 28.5216 28.9447 26.5133 28.9447C24.4979 28.9447 22.6151 28.7074 21.2204 28.2818C19.749 27.8282 19.4421 27.3607 19.4421 27.256V27.242L19.4073 25.2184C19.9651 25.4905 20.5439 25.6999 21.1437 25.8534C22.6081 26.2372 24.47 26.4535 26.3808 26.4535C28.5356 26.4535 30.5788 26.1953 32.1409 25.7208C32.6499 25.5673 33.1381 25.3649 33.6053 25.1277V27.2211H33.6123C33.6123 27.3188 33.2915 27.8003 31.8201 28.2608ZM33.6192 23.125H33.6123C33.6123 23.1948 33.5704 23.2785 33.5704 23.3553C33.5704 23.453 33.2427 23.9275 31.7364 24.388C30.3068 24.8207 28.4031 25.0579 26.3877 25.0579C22.5244 25.0579 19.9233 24.1856 19.3794 23.5088L19.3724 22.9226L19.3445 21.3177C19.8326 21.5619 20.3417 21.7573 20.8647 21.9038C22.378 22.3434 24.3375 22.5807 26.3947 22.5807C28.5146 22.5807 30.537 22.3295 32.092 21.8689C32.622 21.7224 33.1311 21.52 33.6192 21.2688V23.125Z" fill="white"/>
</svg>
