<svg width="25" height="25" viewBox="0 0 25 25" fill="none" xmlns="http://www.w3.org/2000/svg">
<path d="M0 24.077H25V24.8835H0V24.077ZM1.20968 17.6254C1.10274 17.6254 1.00017 17.6679 0.924554 17.7435C0.848934 17.8191 0.806452 17.9217 0.806452 18.0286V22.8674C0.806452 22.9743 0.848934 23.0769 0.924554 23.1525C1.00017 23.2281 1.10274 23.2706 1.20968 23.2706H4.43548C4.54243 23.2706 4.64499 23.2281 4.72061 23.1525C4.79623 23.0769 4.83871 22.9743 4.83871 22.8674V18.0286C4.83871 17.9217 4.79623 17.8191 4.72061 17.7435C4.64499 17.6679 4.54243 17.6254 4.43548 17.6254H1.20968ZM4.03226 22.4641H1.6129V18.4319H4.03226V22.4641ZM7.66129 13.5932C7.55435 13.5932 7.45179 13.6356 7.37617 13.7113C7.30055 13.7869 7.25806 13.8894 7.25806 13.9964V22.8674C7.25806 22.9743 7.30055 23.0769 7.37617 23.1525C7.45179 23.2281 7.55435 23.2706 7.66129 23.2706H10.8871C10.994 23.2706 11.0966 23.2281 11.1722 23.1525C11.2478 23.0769 11.2903 22.9743 11.2903 22.8674V13.9964C11.2903 13.8894 11.2478 13.7869 11.1722 13.7113C11.0966 13.6356 10.994 13.5932 10.8871 13.5932H7.66129ZM10.4839 22.4641H8.06452V14.3996H10.4839V22.4641ZM14.1129 9.5609C14.006 9.5609 13.9034 9.60338 13.8278 9.679C13.7522 9.75462 13.7097 9.85718 13.7097 9.96413V22.8674C13.7097 22.9743 13.7522 23.0769 13.8278 23.1525C13.9034 23.2281 14.006 23.2706 14.1129 23.2706H17.3387C17.4457 23.2706 17.5482 23.2281 17.6238 23.1525C17.6995 23.0769 17.7419 22.9743 17.7419 22.8674V9.96413C17.7419 9.85718 17.6995 9.75462 17.6238 9.679C17.5482 9.60338 17.4457 9.5609 17.3387 9.5609H14.1129ZM16.9355 22.4641H14.5161V10.3674H16.9355V22.4641ZM20.5645 5.52864C20.4576 5.52864 20.355 5.57113 20.2794 5.64674C20.2038 5.72236 20.1613 5.82493 20.1613 5.93187V22.8674C20.1613 22.9743 20.2038 23.0769 20.2794 23.1525C20.355 23.2281 20.4576 23.2706 20.5645 23.2706H23.7903C23.8973 23.2706 23.9998 23.2281 24.0754 23.1525C24.1511 23.0769 24.1935 22.9743 24.1935 22.8674V5.93187C24.1935 5.82493 24.1511 5.72236 24.0754 5.64674C23.9998 5.57113 23.8973 5.52864 23.7903 5.52864H20.5645ZM23.3871 22.4641H20.9677V6.33509H23.3871V22.4641ZM0.806452 16.819H4.83871C4.94565 16.819 5.04821 16.7765 5.12383 16.7009C5.19945 16.6252 5.24194 16.5227 5.24194 16.4157V13.9964C5.24078 13.6081 5.09936 13.2334 4.84372 12.9411C4.58809 12.6489 4.23547 12.4589 3.85081 12.4061C4.10655 12.1944 4.29078 11.9091 4.37835 11.5889C4.46592 11.2687 4.45256 10.9293 4.3401 10.617C4.22764 10.3047 4.02156 10.0346 3.74998 9.84378C3.47839 9.65292 3.15453 9.5505 2.82258 9.5505C2.49063 9.5505 2.16677 9.65292 1.89519 9.84378C1.6236 10.0346 1.41752 10.3047 1.30506 10.617C1.1926 10.9293 1.17924 11.2687 1.26681 11.5889C1.35438 11.9091 1.53861 12.1944 1.79435 12.4061C1.4097 12.4589 1.05707 12.6489 0.801438 12.9411C0.545805 13.2334 0.404384 13.6081 0.403226 13.9964V16.4157C0.403226 16.5227 0.445708 16.6252 0.521328 16.7009C0.596947 16.7765 0.69951 16.819 0.806452 16.819ZM2.82258 10.3674C2.98208 10.3674 3.138 10.4146 3.27062 10.5033C3.40324 10.5919 3.50661 10.7178 3.56764 10.8652C3.62868 11.0125 3.64465 11.1747 3.61354 11.3311C3.58242 11.4876 3.50561 11.6313 3.39283 11.7441C3.28004 11.8568 3.13635 11.9336 2.97991 11.9648C2.82348 11.9959 2.66132 11.9799 2.51396 11.9189C2.36661 11.8578 2.24065 11.7545 2.15204 11.6218C2.06343 11.4892 2.01613 11.3333 2.01613 11.1738C2.01613 10.9599 2.10109 10.7548 2.25233 10.6036C2.40357 10.4523 2.6087 10.3674 2.82258 10.3674ZM1.20968 13.9964C1.20968 13.7825 1.29464 13.5774 1.44588 13.4261C1.59712 13.2749 1.80224 13.1899 2.01613 13.1899H3.62903C3.84292 13.1899 4.04804 13.2749 4.19928 13.4261C4.35052 13.5774 4.43548 13.7825 4.43548 13.9964V16.0125H1.20968V13.9964ZM8.91129 8.27058L8.38186 9.34276L7.19839 9.51493C7.12391 9.52575 7.05395 9.55719 6.99641 9.6057C6.93888 9.65421 6.89607 9.71786 6.87282 9.78943C6.84958 9.86101 6.84683 9.93766 6.86489 10.0107C6.88294 10.0838 6.92109 10.1503 6.975 10.2028L7.83145 11.0375L7.62984 12.2157C7.61704 12.2899 7.62527 12.3662 7.65359 12.436C7.68191 12.5057 7.72918 12.5661 7.79007 12.6104C7.85096 12.6547 7.92302 12.681 7.99811 12.6865C8.07319 12.6919 8.14829 12.6762 8.21492 12.6411L9.27419 12.0855L10.3323 12.6419C10.3903 12.6721 10.4548 12.6878 10.5202 12.6879C10.5789 12.6879 10.6368 12.675 10.6901 12.6503C10.7433 12.6255 10.7904 12.5894 10.8283 12.5445C10.8661 12.4996 10.8937 12.447 10.909 12.3904C10.9244 12.3337 10.9273 12.2744 10.9173 12.2165L10.7157 11.0383L11.5722 10.2036C11.6261 10.1511 11.6642 10.0846 11.6823 10.0115C11.7003 9.93847 11.6976 9.86182 11.6744 9.79024C11.6511 9.71866 11.6083 9.65502 11.5508 9.60651C11.4932 9.558 11.4233 9.52655 11.3488 9.51574L10.1653 9.34356L9.6371 8.27058C9.60017 8.20706 9.54722 8.15434 9.48354 8.11769C9.41986 8.08105 9.34767 8.06176 9.27419 8.06176C9.20072 8.06176 9.12853 8.08105 9.06485 8.11769C9.00116 8.15434 8.94821 8.20706 8.91129 8.27058ZM9.83871 10.1105L10.4234 10.1956L10 10.6093C9.95324 10.6549 9.91827 10.7113 9.89811 10.7734C9.87795 10.8356 9.8732 10.9017 9.88427 10.9661L9.98387 11.5484L9.45968 11.2738C9.40174 11.2433 9.33725 11.2273 9.27177 11.2273C9.2063 11.2273 9.1418 11.2433 9.08387 11.2738L8.55968 11.5484L8.65927 10.9661C8.67096 10.9021 8.66697 10.8362 8.64767 10.7741C8.62836 10.712 8.59429 10.6554 8.54839 10.6093L8.1254 10.1972L8.71008 10.1121C8.77478 10.1027 8.83622 10.0777 8.88912 10.0393C8.94201 10.0009 8.98477 9.95017 9.01371 9.89155L9.27419 9.35929L9.53548 9.88913C9.56418 9.948 9.60679 9.999 9.65962 10.0377C9.71246 10.0764 9.77392 10.1017 9.83871 10.1113V10.1105ZM14.2847 7.00606L14.0831 8.18429C14.0703 8.25847 14.0785 8.33476 14.1068 8.40451C14.1351 8.47426 14.1824 8.53469 14.2433 8.57896C14.3042 8.62323 14.3762 8.64957 14.4513 8.655C14.5264 8.66043 14.6015 8.64474 14.6681 8.60969L15.7258 8.05324L16.7839 8.60969C16.8419 8.63981 16.9064 8.65557 16.9718 8.65566C17.0305 8.65562 17.0885 8.64277 17.1417 8.618C17.1949 8.59323 17.2421 8.55714 17.2799 8.51225C17.3177 8.46737 17.3453 8.41476 17.3607 8.35811C17.376 8.30147 17.3789 8.24214 17.369 8.18429L17.1673 7.00606L18.0238 6.17138C18.0777 6.11888 18.1158 6.05233 18.1339 5.97927C18.152 5.90621 18.1492 5.82956 18.126 5.75798C18.1027 5.6864 18.0599 5.62276 18.0024 5.57425C17.9448 5.52574 17.8749 5.4943 17.8004 5.48348L16.6169 5.3113L16.0887 4.23832C16.0516 4.17555 15.9987 4.12353 15.9354 4.08739C15.872 4.05126 15.8004 4.03226 15.7274 4.03226C15.6545 4.03226 15.5828 4.05126 15.5195 4.08739C15.4561 4.12353 15.4033 4.17555 15.3661 4.23832L14.8367 5.3105L13.6532 5.48267C13.5788 5.49349 13.5088 5.52493 13.4513 5.57344C13.3937 5.62195 13.3509 5.6856 13.3277 5.75717C13.3044 5.82875 13.3017 5.90541 13.3197 5.97846C13.3378 6.05152 13.3759 6.11807 13.4298 6.17058L14.2847 7.00606ZM15.1609 6.07864C15.2256 6.06925 15.287 6.04426 15.3399 6.00584C15.3928 5.96741 15.4356 5.9167 15.4645 5.85808L15.7258 5.32703L15.9871 5.85687C16.016 5.91549 16.0588 5.9662 16.1117 6.00463C16.1646 6.04305 16.226 6.06804 16.2907 6.07743L16.8754 6.16251L16.4516 6.57703C16.4048 6.62268 16.3699 6.67901 16.3497 6.74118C16.3296 6.80334 16.3248 6.86948 16.3359 6.93388L16.4355 7.51614L15.9113 7.24155C15.8534 7.21103 15.7889 7.19509 15.7234 7.19509C15.6579 7.19509 15.5934 7.21103 15.5355 7.24155L15.0113 7.51614L15.1109 6.93388C15.1226 6.86987 15.1186 6.80398 15.0993 6.74184C15.08 6.67969 15.0459 6.62315 15 6.57703L14.577 6.16493L15.1609 6.07864ZM20.7363 2.9738L20.5347 4.15203C20.5219 4.22621 20.5301 4.3025 20.5584 4.37225C20.5867 4.442 20.634 4.50243 20.6949 4.5467C20.7558 4.59097 20.8279 4.61731 20.9029 4.62274C20.978 4.62818 21.0531 4.61248 21.1198 4.57743L22.1774 4.02098L23.2355 4.57743C23.2935 4.60755 23.358 4.62331 23.4234 4.6234C23.4821 4.62336 23.5401 4.61051 23.5933 4.58574C23.6465 4.56097 23.6937 4.52489 23.7315 4.48C23.7693 4.43511 23.7969 4.3825 23.8123 4.32585C23.8277 4.26921 23.8305 4.20988 23.8206 4.15203L23.619 2.9738L24.4758 2.13913C24.5297 2.08662 24.5679 2.02007 24.5859 1.94701C24.604 1.87395 24.6012 1.7973 24.578 1.72572C24.5547 1.65415 24.5119 1.5905 24.4544 1.54199C24.3969 1.49348 24.3269 1.46204 24.2524 1.45122L23.069 1.27905L22.5403 0.206062C22.5032 0.143287 22.4503 0.0912701 22.387 0.0551366C22.3236 0.0190031 22.252 0 22.179 0C22.1061 0 22.0344 0.0190031 21.9711 0.0551366C21.9077 0.0912701 21.8549 0.143287 21.8177 0.206062L21.2867 1.27905L20.1032 1.45122C20.0287 1.46191 19.9586 1.49327 19.901 1.54173C19.8433 1.59019 19.8004 1.65382 19.7771 1.72542C19.7538 1.79702 19.7509 1.87372 19.769 1.94684C19.787 2.01995 19.8251 2.08657 19.879 2.13913L20.7363 2.9738ZM21.6125 2.04638C21.6772 2.03699 21.7386 2.012 21.7915 1.97358C21.8444 1.93515 21.8872 1.88444 21.9161 1.82582L22.1774 1.29477L22.4387 1.82461C22.4676 1.88323 22.5104 1.93394 22.5633 1.97237C22.6162 2.01079 22.6776 2.03578 22.7423 2.04517L23.327 2.13026L22.9032 2.54477C22.8565 2.59042 22.8215 2.64676 22.8013 2.70892C22.7812 2.77109 22.7764 2.83722 22.7875 2.90163L22.8871 3.48388L22.3629 3.20929C22.305 3.17878 22.2405 3.16283 22.175 3.16283C22.1095 3.16283 22.045 3.17878 21.9871 3.20929L21.4629 3.48388L21.5625 2.90163C21.5742 2.83761 21.5702 2.77172 21.5509 2.70958C21.5316 2.64744 21.4975 2.59089 21.4516 2.54477L21.0278 2.13187L21.6125 2.04638ZM3.56774 6.80082L8.09556 4.30082L7.5754 5.36211L8.30121 5.71695L9.38307 3.50646C9.41156 3.44825 9.4256 3.38402 9.424 3.31923C9.4224 3.25443 9.40521 3.19098 9.37387 3.13424C9.34253 3.0775 9.29798 3.02916 9.24399 2.9933C9.19 2.95744 9.12816 2.93512 9.06371 2.92824L6.61613 2.66574L6.53226 3.46937L7.70806 3.59437L3.17782 6.09316L3.56774 6.80082Z" fill="#0682C7"/>
</svg>
