<svg width="36" height="36" viewBox="0 0 36 36" fill="none" xmlns="http://www.w3.org/2000/svg">
<path d="M30.7368 17.3937C29.749 16.5804 28.2905 16.6164 27.3443 17.4789L24.1306 20.4072C23.6731 19.7794 22.9483 19.3969 22.1459 19.3969H18.7439C18.3152 19.3969 17.9002 19.3234 17.5107 19.1789C16.55 18.8228 14.6546 18.3423 12.7446 19.1309C12.3809 19.2812 12.0181 19.5058 11.666 19.7997L8.3392 22.5788C7.82209 22.2743 7.1459 22.3392 6.70266 22.7827L5.18239 24.3028C4.65533 24.8294 4.65496 25.6833 5.18239 26.2103L10.2576 31.2857C10.7827 31.8112 11.6388 31.8112 12.1651 31.2857L13.6851 29.7652C14.2112 29.2392 14.2112 28.3837 13.6851 27.8577L13.6314 27.804L14.0035 27.4318C14.6955 26.74 15.6269 26.3756 16.5644 26.439C18.9405 26.5942 23.7099 26.4514 25.393 24.767L30.83 19.33C31.3757 18.7848 31.3331 17.8855 30.7368 17.3937ZM13.0807 29.1607L11.5608 30.6808C11.3679 30.8733 11.0544 30.8729 10.8619 30.6812L5.78684 25.6058L5.78663 25.6054C5.59473 25.4143 5.59296 25.1016 5.78684 24.9073L7.30711 23.3873C7.39977 23.2947 7.52538 23.2427 7.65635 23.2427C7.78732 23.2427 7.91294 23.2947 8.00559 23.3873L13.0806 28.4623C13.1265 28.5082 13.1629 28.5626 13.1878 28.6225C13.2126 28.6824 13.2254 28.7467 13.2254 28.8115C13.2254 28.8764 13.2127 28.9406 13.1878 29.0005C13.163 29.0605 13.1266 29.1149 13.0807 29.1607ZM30.2256 18.7255L24.7886 24.1625C23.3237 25.6274 18.6564 25.7184 16.62 25.5857C15.4393 25.5118 14.2649 25.9614 13.399 26.8273L13.0269 27.1994L8.99844 23.1422L12.2139 20.456C12.4991 20.2181 12.7874 20.0381 13.0709 19.9212C14.7105 19.2445 16.3699 19.6678 17.213 19.9805C17.6981 20.1604 18.2133 20.2519 18.7439 20.2519H22.1459C23.0425 20.2519 23.7477 20.9818 23.7407 21.8551C23.7389 22.1231 23.5151 22.3415 23.2421 22.3415H15.5958C15.3597 22.3415 15.1683 22.5327 15.1683 22.769C15.1683 23.0053 15.3597 23.1965 15.5958 23.1965H23.242C23.9832 23.1965 24.5904 22.5974 24.5957 21.8614C24.5976 21.6431 24.5701 21.4256 24.5138 21.2147L27.9199 18.1111C28.5535 17.5329 29.5304 17.5087 30.1932 18.0547C30.4014 18.2258 30.4145 18.5362 30.2256 18.7255ZM18.0409 13.0088C18.1137 13.0796 18.1681 13.167 18.1995 13.2635C18.2309 13.3601 18.2383 13.4628 18.2211 13.5628L17.995 14.8808C17.7884 16.0854 19.0537 17.0148 20.1449 16.4406L21.3249 15.8185C21.4149 15.7712 21.5151 15.7465 21.6168 15.7465C21.7185 15.7465 21.8187 15.7712 21.9088 15.8185L23.0846 16.4397C24.1701 17.0138 25.4411 16.0917 25.236 14.8833L25.0118 13.562C24.9949 13.4621 25.0025 13.3597 25.0338 13.2634C25.0652 13.1671 25.1195 13.0799 25.1919 13.0092L26.144 12.0807C27.0218 11.2245 26.5371 9.73244 25.3239 9.55573L24.0038 9.36324C23.9034 9.34853 23.8081 9.30965 23.7261 9.24995C23.6441 9.19024 23.5779 9.11149 23.5331 9.0205L22.9431 7.82436C22.4001 6.72285 20.8313 6.72461 20.2883 7.82228L19.6946 9.02178C19.6496 9.11244 19.5833 9.19084 19.5014 9.25025C19.4195 9.30966 19.3244 9.34831 19.2243 9.36287L17.9063 9.55535C16.6924 9.73212 16.2081 11.2263 17.0878 12.0816L18.0409 13.0088ZM18.0299 10.4012L19.3474 10.2087C19.5846 10.1743 19.8098 10.0829 20.0037 9.94213C20.1976 9.8014 20.3545 9.61565 20.4607 9.40087L21.0543 8.20143C21.2841 7.7374 21.9463 7.73686 22.1761 8.20266L22.766 9.39879C22.8721 9.61409 23.029 9.80036 23.2231 9.94153C23.4172 10.0827 23.6428 10.1745 23.8803 10.2091L25.2004 10.4016C25.7139 10.4773 25.919 11.1059 25.5469 11.4687L24.595 12.3972C24.4235 12.5644 24.2951 12.7707 24.2208 12.9985C24.1466 13.2263 24.1287 13.4686 24.1688 13.7048L24.393 15.0262C24.4799 15.5388 23.9443 15.9254 23.4841 15.6841L22.308 15.0629C22.0952 14.9502 21.858 14.8912 21.6172 14.891C21.3763 14.8909 21.1391 14.9496 20.9261 15.062L19.7461 15.6841C19.2854 15.9269 18.7498 15.5369 18.8379 15.0253L19.0639 13.7073C19.1046 13.4704 19.087 13.2272 19.0126 12.9988C18.9382 12.7703 18.8092 12.5634 18.6368 12.3959L17.6839 11.4687C17.3111 11.1056 17.516 10.4768 18.0299 10.4012ZM21.615 5.79083C21.6712 5.79084 21.7268 5.77979 21.7787 5.75831C21.8305 5.73683 21.8777 5.70534 21.9174 5.66564C21.9571 5.62594 21.9886 5.57881 22.01 5.52693C22.0315 5.47505 22.0426 5.41945 22.0426 5.36331V4.74752C22.0426 4.5112 21.8511 4.32 21.615 4.32C21.3789 4.32 21.1875 4.5112 21.1875 4.74752V5.36331C21.1875 5.41945 21.1986 5.47505 21.22 5.52693C21.2415 5.57881 21.273 5.62594 21.3127 5.66564C21.3524 5.70534 21.3995 5.73683 21.4514 5.75831C21.5033 5.77979 21.5589 5.79084 21.615 5.79083ZM18.0236 6.44002C18.1426 6.64657 18.4054 6.71328 18.6075 6.59659C18.6561 6.56852 18.6987 6.53114 18.7329 6.48659C18.7671 6.44203 18.7922 6.39118 18.8067 6.33694C18.8212 6.2827 18.8249 6.22613 18.8175 6.17046C18.8102 6.11479 18.7919 6.06111 18.7638 6.0125L18.4559 5.47935C18.338 5.27436 18.076 5.20423 17.8721 5.32279C17.8234 5.35086 17.7808 5.38824 17.7466 5.43279C17.7124 5.47734 17.6874 5.52819 17.6729 5.58244C17.6583 5.63668 17.6547 5.69325 17.662 5.74892C17.6694 5.80459 17.6876 5.85826 17.7157 5.90688L18.0236 6.44002ZM15.2884 8.64734L15.8215 8.95502C16.0264 9.07293 16.2877 9.00248 16.4056 8.79845C16.4622 8.70021 16.4775 8.58353 16.4482 8.47401C16.4188 8.3645 16.3472 8.27111 16.249 8.21436L15.7159 7.90668C15.6673 7.87857 15.6136 7.86031 15.5579 7.85296C15.5022 7.84562 15.4456 7.84932 15.3914 7.86386C15.3371 7.8784 15.2863 7.9035 15.2418 7.93771C15.1972 7.97192 15.1599 8.01458 15.1318 8.06325C15.0752 8.16148 15.0599 8.27817 15.0892 8.38769C15.1186 8.4972 15.1902 8.59059 15.2884 8.64734ZM14.5565 12.2335H15.1721C15.4082 12.2335 15.5996 12.0423 15.5996 11.806C15.5996 11.5697 15.4082 11.3785 15.1721 11.3785H14.5565C14.3204 11.3785 14.129 11.5697 14.129 11.806C14.129 12.0423 14.3204 12.2335 14.5565 12.2335ZM27.6307 11.8061C27.6306 11.8622 27.6417 11.9178 27.6632 11.9697C27.6847 12.0216 27.7161 12.0687 27.7558 12.1084C27.7955 12.1481 27.8427 12.1796 27.8946 12.2011C27.9464 12.2226 28.002 12.2336 28.0582 12.2336H28.6738C28.9099 12.2336 29.1013 12.0424 29.1013 11.8061C29.1013 11.5698 28.9099 11.3785 28.6738 11.3785H28.0582C28.002 11.3785 27.9464 11.3896 27.8946 11.4111C27.8427 11.4325 27.7955 11.464 27.7558 11.5037C27.7161 11.5434 27.6847 11.5906 27.6632 11.6424C27.6417 11.6943 27.6306 11.7499 27.6307 11.8061ZM27.4088 8.95502L27.9419 8.64734C28.0401 8.59059 28.1117 8.4972 28.141 8.38769C28.1704 8.27817 28.1551 8.16148 28.0985 8.06325C27.9801 7.85911 27.719 7.78812 27.5144 7.90668L26.9813 8.21436C26.8831 8.27111 26.8115 8.3645 26.7821 8.47401C26.7528 8.58353 26.7681 8.70021 26.8247 8.79845C26.8815 8.89658 26.9748 8.96818 27.0843 8.99754C27.1939 9.02689 27.3105 9.0116 27.4088 8.95502ZM24.6229 6.59659C24.8253 6.71349 25.0879 6.64625 25.2068 6.44002L25.5146 5.90688C25.5427 5.85826 25.561 5.80459 25.5683 5.74892C25.5757 5.69325 25.572 5.63668 25.5575 5.58244C25.543 5.5282 25.5179 5.47735 25.4837 5.4328C25.4495 5.38825 25.4069 5.35087 25.3583 5.32279C25.3097 5.29459 25.256 5.27627 25.2003 5.26888C25.1447 5.26149 25.0881 5.26518 25.0338 5.27973C24.9796 5.29428 24.9287 5.3194 24.8842 5.35366C24.8397 5.38792 24.8024 5.43063 24.7744 5.47935L24.4665 6.0125C24.4384 6.06111 24.4202 6.11479 24.4128 6.17046C24.4054 6.22613 24.4091 6.2827 24.4237 6.33695C24.4382 6.39119 24.4632 6.44204 24.4974 6.48659C24.5316 6.53114 24.5742 6.56852 24.6229 6.59659Z" fill="#0682C7"/>
</svg>
