<svg width="70" height="70" viewBox="0 0 70 70" fill="none" xmlns="http://www.w3.org/2000/svg">
<rect width="69.9999" height="69.9999" rx="34.9999" fill="#0682C7"/>
<mask id="mask0_25_1923" style="mask-type:luminance" maskUnits="userSpaceOnUse" x="10" y="10" width="50" height="50">
<path d="M59.951 59.951V10.0489H10.0488V59.951H59.951Z" fill="white" stroke="white" stroke-width="0.097656"/>
</mask>
<g mask="url(#mask0_25_1923)">
<path d="M39.5558 49.0067H34.9235C33.9522 49.0067 32.9822 48.9363 32.0211 48.7959L31.0056 48.6477" stroke="white" stroke-miterlimit="10" stroke-linecap="round" stroke-linejoin="round"/>
<path d="M21.8301 46.6507V51.9407C21.8301 52.4991 21.3774 52.9519 20.8188 52.9519H19.1013C18.5428 52.9519 18.0901 52.4991 18.0901 51.9407V40.9719C18.0901 40.4134 18.5428 39.9606 19.1013 39.9606H20.8188C21.3774 39.9606 21.8301 40.4134 21.8301 40.9719V43.9691" stroke="white" stroke-miterlimit="10" stroke-linecap="round" stroke-linejoin="round"/>
<path d="M21.8301 51.2095L28.3411 53.633C28.9932 53.8757 29.6834 54 30.3792 54H38.2916C39.3989 54 40.4834 53.6854 41.4187 53.0927L51.3259 47.5032C51.9796 46.9229 52.1007 45.9474 51.609 45.2248C51.071 44.434 50.1809 44.2966 49.2015 44.7597L39.5558 49.0067L39.5673 48.0887C39.4395 46.8042 38.4505 45.7733 37.1724 45.5925L31.2985 44.9162C29.9435 44.7245 29.2664 44.2704 28.0852 43.5794C26.4725 42.636 24.6378 42.1388 22.7694 42.1388H21.8301" stroke="white" stroke-miterlimit="10" stroke-linecap="round" stroke-linejoin="round"/>
<path d="M36.5054 16.7206C36.7624 17.0399 37.1144 17.2692 37.5104 17.3753C37.9063 17.4814 38.3258 17.4588 38.7081 17.3108C39.8582 16.8654 41.1255 17.5971 41.3149 18.8158C41.3778 19.2209 41.568 19.5954 41.8578 19.8853C42.1477 20.1752 42.5223 20.3654 42.9274 20.4283C44.146 20.6177 44.8778 21.8849 44.4324 23.0351C44.2844 23.4174 44.2617 23.8368 44.3678 24.2328C44.4739 24.6288 44.7032 24.9807 45.0226 25.2378C45.9834 26.0112 45.9834 27.4744 45.0226 28.2478C44.7032 28.5049 44.4739 28.8568 44.3678 29.2528C44.2617 29.6488 44.2844 30.0682 44.4324 30.4505C44.8778 31.6006 44.146 32.8679 42.9274 33.0573C42.5223 33.1202 42.1477 33.3104 41.8578 33.6003C41.5679 33.8901 41.3778 34.2647 41.3149 34.6698C41.1255 35.8885 39.8582 36.6202 38.7081 36.1747C38.3258 36.0267 37.9063 36.0041 37.5104 36.1103C37.1144 36.2164 36.7624 36.4457 36.5054 36.765C35.732 37.7258 34.2687 37.7258 33.4954 36.765C33.2383 36.4457 32.8863 36.2164 32.4904 36.1103C32.0944 36.0041 31.6749 36.0267 31.2927 36.1747C30.1425 36.6202 28.8753 35.8885 28.6859 34.6698C28.6229 34.2647 28.4328 33.8901 28.1429 33.6003C27.853 33.3104 27.4784 33.1202 27.0734 33.0573C25.8547 32.8679 25.123 31.6006 25.5683 30.4505C25.7164 30.0682 25.739 29.6488 25.6329 29.2528C25.5268 28.8568 25.2975 28.5049 24.9782 28.2478C24.0174 27.4744 24.0174 26.0112 24.9782 25.2378C25.2975 24.9807 25.5268 24.6288 25.6329 24.2328C25.739 23.8368 25.7164 23.4174 25.5683 23.0351C25.123 21.8849 25.8547 20.6177 27.0734 20.4283C27.4784 20.3654 27.853 20.1752 28.1429 19.8853C28.4328 19.5954 28.6229 19.2209 28.6859 18.8158C28.8753 17.5971 30.1425 16.8654 31.2927 17.3108C31.6749 17.4588 32.0944 17.4814 32.4904 17.3753C32.8863 17.2692 33.2383 17.0399 33.4954 16.7206C34.2687 15.7598 35.732 15.7598 36.5054 16.7206Z" stroke="white" stroke-miterlimit="10" stroke-linecap="round" stroke-linejoin="round"/>
<path d="M27.8788 25.4014C28.5079 22.0408 31.4571 19.4974 35.0003 19.4974C39.0019 19.4974 42.2457 22.7413 42.2457 26.7428C42.2457 30.7444 39.0019 33.9883 35.0003 33.9883C31.4567 33.9883 28.5073 31.4443 27.8787 28.0831" stroke="white" stroke-miterlimit="10" stroke-linecap="round" stroke-linejoin="round"/>
<path d="M35.1411 29.05L37.4463 30.5738C37.6434 30.704 37.8966 30.5201 37.8336 30.2924L37.0968 27.6292C37.0834 27.5809 37.0845 27.5297 37.1 27.4821C37.1155 27.4344 37.1447 27.3923 37.1839 27.3611L39.3453 25.6397C39.5301 25.4925 39.4334 25.1948 39.1974 25.1844L36.4369 25.0622C36.3868 25.0599 36.3385 25.043 36.298 25.0136C36.2574 24.9841 36.2264 24.9434 36.2088 24.8965L35.2395 22.3088C35.1567 22.0876 34.8437 22.0876 34.7608 22.3088L33.7916 24.8965C33.774 24.9434 33.743 24.9841 33.7025 25.0136C33.6619 25.043 33.6136 25.0599 33.5636 25.0622L30.803 25.1844C30.567 25.1948 30.4704 25.4925 30.6551 25.6397L32.8166 27.3611C32.8558 27.3924 32.8849 27.4344 32.9004 27.4821C32.9159 27.5297 32.917 27.5809 32.9037 27.6292L32.1669 30.2924C32.1039 30.5201 32.3571 30.704 32.5542 30.5738L34.8592 29.05C34.9011 29.0224 34.9501 29.0077 35.0002 29.0077C35.0503 29.0077 35.0993 29.0224 35.1411 29.05Z" stroke="white" stroke-miterlimit="10" stroke-linecap="round" stroke-linejoin="round"/>
<path d="M28.5532 34.2085L25.7307 39.6816C25.6066 39.9222 25.8216 40.1975 26.085 40.1355L29.2273 39.3953C29.3009 39.378 29.3782 39.3875 29.4453 39.4221C29.5125 39.4568 29.5651 39.5142 29.5936 39.5842L30.8125 42.5735C30.9147 42.8242 31.2638 42.8397 31.3878 42.5991L34.1313 37.2796" stroke="white" stroke-miterlimit="10" stroke-linecap="round" stroke-linejoin="round"/>
<path d="M35.8691 37.2796L38.6126 42.5991C38.7366 42.8397 39.0856 42.8242 39.1878 42.5735L40.4067 39.5842C40.4353 39.5142 40.4879 39.4568 40.555 39.4222C40.6221 39.3875 40.6994 39.378 40.773 39.3953L43.9153 40.1355C44.1788 40.1975 44.3938 39.9222 44.2697 39.6816L41.4472 34.2085" stroke="white" stroke-miterlimit="10" stroke-linecap="round" stroke-linejoin="round"/>
</g>
</svg>
