<svg width="70" height="70" viewBox="0 0 70 70" fill="none" xmlns="http://www.w3.org/2000/svg">
<rect width="70" height="70" rx="35" fill="#0682C7"/>
<path d="M19 49.8932H51V50.9254H19V49.8932ZM20.5484 41.6351C20.4115 41.6351 20.2802 41.6895 20.1834 41.7863C20.0866 41.8831 20.0323 42.0144 20.0323 42.1512V48.3448C20.0323 48.4817 20.0866 48.613 20.1834 48.7098C20.2802 48.8065 20.4115 48.8609 20.5484 48.8609H24.6774C24.8143 48.8609 24.9456 48.8065 25.0424 48.7098C25.1392 48.613 25.1935 48.4817 25.1935 48.3448V42.1512C25.1935 42.0144 25.1392 41.8831 25.0424 41.7863C24.9456 41.6895 24.8143 41.6351 24.6774 41.6351H20.5484ZM24.1613 47.8287H21.0645V42.6674H24.1613V47.8287ZM28.8065 36.4738C28.6696 36.4738 28.5383 36.5282 28.4415 36.625C28.3447 36.7218 28.2903 36.8531 28.2903 36.99V48.3448C28.2903 48.4817 28.3447 48.613 28.4415 48.7098C28.5383 48.8065 28.6696 48.8609 28.8065 48.8609H32.9355C33.0724 48.8609 33.2036 48.8065 33.3004 48.7098C33.3972 48.613 33.4516 48.4817 33.4516 48.3448V36.99C33.4516 36.8531 33.3972 36.7218 33.3004 36.625C33.2036 36.5282 33.0724 36.4738 32.9355 36.4738H28.8065ZM32.4194 47.8287H29.3226V37.5061H32.4194V47.8287ZM37.0645 31.3125C36.9276 31.3125 36.7964 31.3669 36.6996 31.4637C36.6028 31.5605 36.5484 31.6918 36.5484 31.8287V48.3448C36.5484 48.4817 36.6028 48.613 36.6996 48.7098C36.7964 48.8065 36.9276 48.8609 37.0645 48.8609H41.1935C41.3304 48.8609 41.4617 48.8065 41.5585 48.7098C41.6553 48.613 41.7097 48.4817 41.7097 48.3448V31.8287C41.7097 31.6918 41.6553 31.5605 41.5585 31.4637C41.4617 31.3669 41.3304 31.3125 41.1935 31.3125H37.0645ZM40.6774 47.8287H37.5806V32.3448H40.6774V47.8287ZM45.3226 26.1512C45.1857 26.1512 45.0544 26.2056 44.9576 26.3024C44.8608 26.3992 44.8064 26.5305 44.8064 26.6674V48.3448C44.8064 48.4817 44.8608 48.613 44.9576 48.7098C45.0544 48.8065 45.1857 48.8609 45.3226 48.8609H49.4516C49.5885 48.8609 49.7198 48.8065 49.8166 48.7098C49.9134 48.613 49.9677 48.4817 49.9677 48.3448V26.6674C49.9677 26.5305 49.9134 26.3992 49.8166 26.3024C49.7198 26.2056 49.5885 26.1512 49.4516 26.1512H45.3226ZM48.9355 47.8287H45.8387V27.1835H48.9355V47.8287ZM20.0323 40.6029H25.1935C25.3304 40.6029 25.4617 40.5485 25.5585 40.4517C25.6553 40.3549 25.7097 40.2236 25.7097 40.0867V36.99C25.7082 36.493 25.5272 36.0133 25.2 35.6392C24.8728 35.2652 24.4214 35.0219 23.929 34.9543C24.2564 34.6835 24.4922 34.3182 24.6043 33.9084C24.7164 33.4985 24.6993 33.0641 24.5553 32.6643C24.4114 32.2645 24.1476 31.9189 23.8 31.6746C23.4523 31.4303 23.0378 31.2992 22.6129 31.2992C22.188 31.2992 21.7735 31.4303 21.4258 31.6746C21.0782 31.9189 20.8144 32.2645 20.6705 32.6643C20.5265 33.0641 20.5094 33.4985 20.6215 33.9084C20.7336 34.3182 20.9694 34.6835 21.2968 34.9543C20.8044 35.0219 20.3531 35.2652 20.0258 35.6392C19.6986 36.0133 19.5176 36.493 19.5161 36.99V40.0867C19.5161 40.2236 19.5705 40.3549 19.6673 40.4517C19.7641 40.5485 19.8954 40.6029 20.0323 40.6029ZM22.6129 32.3448C22.8171 32.3448 23.0166 32.4053 23.1864 32.5188C23.3561 32.6322 23.4885 32.7934 23.5666 32.982C23.6447 33.1706 23.6652 33.3782 23.6253 33.5784C23.5855 33.7787 23.4872 33.9626 23.3428 34.107C23.1985 34.2513 23.0145 34.3496 22.8143 34.3895C22.614 34.4293 22.4065 34.4089 22.2179 34.3307C22.0293 34.2526 21.868 34.1203 21.7546 33.9505C21.6412 33.7808 21.5806 33.5812 21.5806 33.3771C21.5806 33.1033 21.6894 32.8407 21.883 32.6471C22.0766 32.4536 22.3391 32.3448 22.6129 32.3448ZM20.5484 36.99C20.5484 36.7162 20.6571 36.4536 20.8507 36.26C21.0443 36.0665 21.3069 35.9577 21.5806 35.9577H23.6452C23.9189 35.9577 24.1815 36.0665 24.3751 36.26C24.5687 36.4536 24.6774 36.7162 24.6774 36.99V39.5706H20.5484V36.99ZM30.4065 29.6609L29.7288 31.0333L28.2139 31.2537C28.1186 31.2675 28.0291 31.3078 27.9554 31.3699C27.8818 31.432 27.827 31.5134 27.7972 31.6051C27.7675 31.6967 27.7639 31.7948 27.7871 31.8883C27.8102 31.9818 27.859 32.067 27.928 32.1342L29.0243 33.2026L28.7662 34.7107C28.7498 34.8057 28.7603 34.9033 28.7966 34.9926C28.8328 35.0819 28.8934 35.1592 28.9713 35.2159C29.0492 35.2726 29.1415 35.3063 29.2376 35.3132C29.3337 35.3202 29.4298 35.3001 29.5151 35.2552L30.871 34.544L32.2253 35.2563C32.2996 35.2948 32.3821 35.315 32.4658 35.3151C32.5409 35.3151 32.6152 35.2986 32.6833 35.2669C32.7514 35.2352 32.8118 35.189 32.8602 35.1316C32.9086 35.0741 32.9439 35.0068 32.9636 34.9343C32.9833 34.8618 32.9869 34.7858 32.9742 34.7118L32.7161 33.2036L33.8124 32.1352C33.8814 32.068 33.9302 31.9829 33.9533 31.8893C33.9764 31.7958 33.9729 31.6977 33.9432 31.6061C33.9134 31.5145 33.8586 31.433 33.785 31.3709C33.7113 31.3088 33.6218 31.2686 33.5265 31.2547L32.0116 31.0343L31.3355 29.6609C31.2882 29.5796 31.2204 29.5121 31.1389 29.4652C31.0574 29.4183 30.965 29.3936 30.871 29.3936C30.7769 29.3936 30.6845 29.4183 30.603 29.4652C30.5215 29.5121 30.4537 29.5796 30.4065 29.6609ZM31.5935 32.016L32.3419 32.1249L31.8 32.6545C31.7401 32.7129 31.6954 32.785 31.6696 32.8646C31.6438 32.9442 31.6377 33.0288 31.6519 33.1112L31.7794 33.8565L31.1084 33.5051C31.0342 33.466 30.9517 33.4456 30.8679 33.4456C30.7841 33.4456 30.7015 33.466 30.6274 33.5051L29.9564 33.8565L30.0839 33.1112C30.0988 33.0293 30.0937 32.945 30.069 32.8654C30.0443 32.7859 30.0007 32.7135 29.9419 32.6545L29.4005 32.127L30.1489 32.0181C30.2317 32.0061 30.3104 31.9741 30.3781 31.9249C30.4458 31.8757 30.5005 31.8108 30.5375 31.7358L30.871 31.0545L31.2054 31.7327C31.2422 31.808 31.2967 31.8733 31.3643 31.9229C31.4319 31.9724 31.5106 32.0047 31.5935 32.0171V32.016ZM37.2844 28.0423L37.0263 29.5505C37.0099 29.6454 37.0205 29.7431 37.0567 29.8324C37.093 29.9216 37.1535 29.999 37.2314 30.0557C37.3094 30.1123 37.4016 30.146 37.4977 30.153C37.5938 30.1599 37.6899 30.1399 37.7752 30.095L39.129 29.3827L40.4834 30.095C40.5577 30.1335 40.6401 30.1537 40.7239 30.1538C40.799 30.1538 40.8732 30.1373 40.9413 30.1056C41.0095 30.0739 41.0698 30.0277 41.1182 29.9703C41.1667 29.9128 41.2019 29.8455 41.2216 29.773C41.2413 29.7005 41.245 29.6245 41.2323 29.5505L40.9742 28.0423L42.0705 26.974C42.1395 26.9067 42.1883 26.8216 42.2114 26.7281C42.2345 26.6345 42.231 26.5364 42.2012 26.4448C42.1715 26.3532 42.1167 26.2717 42.043 26.2096C41.9694 26.1475 41.8798 26.1073 41.7845 26.0934L40.2697 25.8731L39.5935 24.4996C39.546 24.4193 39.4784 24.3527 39.3973 24.3065C39.3162 24.2602 39.2245 24.2359 39.1311 24.2359C39.0377 24.2359 38.946 24.2602 38.8649 24.3065C38.7838 24.3527 38.7162 24.4193 38.6686 24.4996L37.991 25.872L36.4761 26.0924C36.3808 26.1063 36.2912 26.1465 36.2176 26.2086C36.144 26.2707 36.0892 26.3522 36.0594 26.4438C36.0297 26.5354 36.0261 26.6335 36.0492 26.727C36.0724 26.8205 36.1212 26.9057 36.1902 26.9729L37.2844 28.0423ZM38.4059 26.8552C38.4887 26.8432 38.5674 26.8112 38.6351 26.7621C38.7028 26.7129 38.7575 26.648 38.7946 26.5729L39.129 25.8932L39.4635 26.5714C39.5005 26.6464 39.5553 26.7113 39.623 26.7605C39.6907 26.8097 39.7693 26.8417 39.8521 26.8537L40.6005 26.9626L40.0581 27.4932C39.9982 27.5516 39.9534 27.6237 39.9276 27.7033C39.9018 27.7829 39.8958 27.8675 39.9099 27.95L40.0374 28.6952L39.3665 28.3438C39.2923 28.3047 39.2097 28.2843 39.1259 28.2843C39.0421 28.2843 38.9596 28.3047 38.8854 28.3438L38.2145 28.6952L38.3419 27.95C38.3569 27.868 38.3518 27.7837 38.3271 27.7041C38.3024 27.6246 38.2588 27.5522 38.2 27.4932L37.6586 26.9657L38.4059 26.8552ZM45.5424 22.8811L45.2844 24.3892C45.268 24.4841 45.2785 24.5818 45.3148 24.6711C45.351 24.7603 45.4115 24.8377 45.4895 24.8944C45.5674 24.951 45.6597 24.9847 45.7558 24.9917C45.8519 24.9987 45.948 24.9786 46.0333 24.9337L47.3871 24.2214L48.7414 24.9337C48.8157 24.9722 48.8982 24.9924 48.9819 24.9925C49.0571 24.9925 49.1313 24.976 49.1994 24.9443C49.2675 24.9126 49.3279 24.8664 49.3763 24.809C49.4247 24.7515 49.46 24.6842 49.4797 24.6117C49.4994 24.5392 49.503 24.4632 49.4903 24.3892L49.2323 22.8811L50.329 21.8127C50.398 21.7455 50.4469 21.6603 50.47 21.5668C50.4931 21.4732 50.4896 21.3751 50.4598 21.2835C50.4301 21.1919 50.3753 21.1104 50.3016 21.0483C50.228 20.9862 50.1384 20.946 50.0431 20.9322L48.5283 20.7118L47.8516 19.3383C47.8041 19.258 47.7364 19.1914 47.6554 19.1452C47.5743 19.0989 47.4825 19.0746 47.3892 19.0746C47.2958 19.0746 47.2041 19.0989 47.123 19.1452C47.0419 19.1914 46.9742 19.258 46.9267 19.3383L46.247 20.7118L44.7321 20.9322C44.6367 20.9458 44.547 20.986 44.4733 21.048C44.3995 21.11 44.3445 21.1915 44.3147 21.2831C44.2848 21.3748 44.2812 21.4729 44.3043 21.5665C44.3273 21.6601 44.3761 21.7454 44.4452 21.8127L45.5424 22.8811ZM46.664 21.694C46.7468 21.6819 46.8255 21.6499 46.8932 21.6008C46.9609 21.5516 47.0156 21.4867 47.0526 21.4116L47.3871 20.7319L47.7215 21.4101C47.7586 21.4851 47.8133 21.55 47.881 21.5992C47.9487 21.6484 48.0274 21.6804 48.1102 21.6924L48.8586 21.8013L48.3161 22.3319C48.2563 22.3903 48.2115 22.4624 48.1857 22.542C48.1599 22.6216 48.1538 22.7062 48.168 22.7887L48.2955 23.534L47.6245 23.1825C47.5504 23.1434 47.4678 23.123 47.384 23.123C47.3002 23.123 47.2176 23.1434 47.1435 23.1825L46.4725 23.534L46.6 22.7887C46.615 22.7067 46.6099 22.6224 46.5851 22.5428C46.5604 22.4633 46.5168 22.3909 46.4581 22.3319L45.9156 21.8034L46.664 21.694ZM23.5667 27.7796L29.3623 24.5796L28.6965 25.9381L29.6255 26.3923L31.0103 23.5629C31.0468 23.4883 31.0648 23.4061 31.0627 23.3232C31.0607 23.2403 31.0387 23.159 30.9986 23.0864C30.9584 23.0138 30.9014 22.9519 30.8323 22.906C30.7632 22.8601 30.684 22.8315 30.6015 22.8227L27.4686 22.4867L27.3613 23.5154L28.8663 23.6754L23.0676 26.8738L23.5667 27.7796Z" fill="white"/>
</svg>
