<svg width="70" height="70" viewBox="0 0 70 70" fill="none" xmlns="http://www.w3.org/2000/svg">
<rect width="69.9999" height="69.9999" rx="34.9999" fill="#0682C7"/>
<path d="M52.6899 34.158C51.318 33.0284 49.2922 33.0783 47.978 34.2762L43.5146 38.3433C42.8792 37.4713 41.8726 36.9401 40.7581 36.9401H36.0331C35.4376 36.9401 34.8612 36.838 34.3202 36.6374C32.986 36.1428 30.3535 35.4754 27.7007 36.5707C27.1956 36.7795 26.6917 37.0915 26.2026 37.4996L21.5821 41.3595C20.8639 40.9365 19.9247 41.0266 19.3091 41.6427L17.1976 43.7539C16.4656 44.4853 16.4651 45.6712 17.1976 46.4031L24.2465 53.4523C24.9759 54.1823 26.1649 54.1822 26.8958 53.4523L29.007 51.3406C29.7376 50.6099 29.7376 49.4219 29.007 48.6913L28.9324 48.6166L29.4491 48.0998C30.4103 47.139 31.7039 46.6328 33.006 46.7209C36.3062 46.9363 42.9303 46.738 45.268 44.3986L52.8194 36.8473C53.5773 36.09 53.5181 34.841 52.6899 34.158ZM28.1675 50.501L26.0565 52.6122C25.7887 52.8796 25.3532 52.879 25.0858 52.6128L18.0372 45.5636L18.0369 45.563C17.7703 45.2977 17.7679 44.8634 18.0372 44.5935L20.1487 42.4823C20.2773 42.3538 20.4518 42.2815 20.6337 42.2815C20.8156 42.2815 20.9901 42.3538 21.1188 42.4823L28.1674 49.531C28.2312 49.5947 28.2818 49.6703 28.3163 49.7535C28.3508 49.8367 28.3685 49.9259 28.3685 50.016C28.3685 50.1061 28.3508 50.1953 28.3163 50.2785C28.2818 50.3618 28.2312 50.4374 28.1675 50.501ZM51.9798 36.0077L44.4285 43.559C42.394 45.5935 35.9115 45.7201 33.0832 45.5357C31.4433 45.4331 29.8123 46.0576 28.6096 47.2602L28.0928 47.777L22.4977 42.1419L26.9637 38.4112C27.3597 38.0806 27.7602 37.8307 28.1539 37.6684C30.4312 36.7284 32.7358 37.3164 33.9068 37.7507C34.5806 38.0006 35.2961 38.1276 36.0331 38.1276H40.7581C42.0034 38.1276 42.9828 39.1413 42.9731 40.3543C42.9705 40.7265 42.6598 41.0298 42.2805 41.0298H31.6608C31.3329 41.0298 31.067 41.2954 31.067 41.6236C31.067 41.9518 31.3329 42.2174 31.6608 42.2174H42.2804C43.3099 42.2174 44.1533 41.3853 44.1605 40.363C44.1632 40.0599 44.125 39.7578 44.0469 39.4649L48.7776 35.1543C49.6575 34.3512 51.0143 34.3176 51.9348 35.076C52.2241 35.3137 52.2423 35.7447 51.9798 36.0077ZM35.0567 28.0678C35.1578 28.1661 35.2334 28.2875 35.277 28.4216C35.3206 28.5557 35.3308 28.6983 35.3069 28.8373L34.9929 30.6678C34.706 32.3408 36.4634 33.6317 37.9788 32.8341L39.6178 31.9702C39.7429 31.9045 39.882 31.8702 40.0233 31.8702C40.1645 31.8702 40.3037 31.9045 40.4287 31.9702L42.0619 32.833C43.5695 33.6303 45.3348 32.3495 45.0499 30.6713L44.7385 28.8361C44.715 28.6974 44.7255 28.5551 44.7691 28.4214C44.8127 28.2877 44.888 28.1665 44.9887 28.0683L46.311 26.7788C47.5302 25.5897 46.857 23.5173 45.1719 23.2718L43.3385 23.0045C43.1991 22.9841 43.0667 22.9301 42.9528 22.8471C42.839 22.7642 42.7469 22.6549 42.6847 22.5285L41.8654 20.8672C41.1112 19.3373 38.9323 19.3397 38.1781 20.8643L37.3534 22.5302C37.291 22.6562 37.199 22.7651 37.0852 22.8476C36.9714 22.9301 36.8393 22.9838 36.7003 23.004L34.8697 23.2713C33.1838 23.5168 32.5111 25.592 33.7329 26.78L35.0567 28.0678ZM35.0413 24.4461L36.8713 24.1788C37.2007 24.131 37.5135 24.004 37.7828 23.8085C38.0522 23.6131 38.27 23.3551 38.4175 23.0568L39.242 21.3909C39.5611 20.7464 40.4809 20.7456 40.8 21.3926L41.6193 23.0539C41.7667 23.3529 41.9846 23.6116 42.2542 23.8077C42.5238 24.0038 42.8371 24.1313 43.167 24.1794L45.0004 24.4467C45.7137 24.5518 45.9985 25.4249 45.4817 25.9288L44.1596 27.2184C43.9214 27.4506 43.743 27.7371 43.6399 28.0535C43.5368 28.3698 43.512 28.7064 43.5676 29.0344L43.879 30.8697C43.9997 31.5817 43.2559 32.1186 42.6167 31.7835L40.9832 30.9207C40.6876 30.7641 40.3582 30.6822 40.0237 30.682C39.6892 30.6818 39.3598 30.7633 39.064 30.9195L37.425 31.7834C36.7852 32.1207 36.0412 31.5791 36.1636 30.8684L36.4775 29.0379C36.5341 28.7089 36.5096 28.3712 36.4062 28.0538C36.3029 27.7365 36.1238 27.4491 35.8844 27.2166L34.5609 25.9287C34.043 25.4245 34.3276 24.5512 35.0413 24.4461ZM40.0208 18.0428C40.0988 18.0428 40.176 18.0275 40.248 17.9977C40.3201 17.9678 40.3855 17.9241 40.4407 17.8689C40.4958 17.8138 40.5396 17.7483 40.5694 17.6763C40.5992 17.6042 40.6146 17.527 40.6146 17.449V16.5938C40.6146 16.2656 40.3487 16 40.0208 16C39.6929 16 39.427 16.2656 39.427 16.5938V17.449C39.427 17.527 39.4423 17.6042 39.4722 17.6763C39.502 17.7483 39.5457 17.8138 39.6009 17.8689C39.656 17.9241 39.7215 17.9678 39.7935 17.9977C39.8656 18.0275 39.9428 18.0428 40.0208 18.0428ZM35.0327 18.9445C35.1979 19.2313 35.563 19.324 35.8436 19.1619C35.9111 19.1229 35.9703 19.071 36.0178 19.0091C36.0653 18.9473 36.1001 18.8766 36.1203 18.8013C36.1404 18.726 36.1456 18.6474 36.1353 18.5701C36.1251 18.4928 36.0998 18.4182 36.0608 18.3507L35.6331 17.6102C35.4694 17.3255 35.1055 17.2281 34.8222 17.3928C34.7546 17.4318 34.6954 17.4837 34.648 17.5455C34.6005 17.6074 34.5657 17.678 34.5455 17.7534C34.5254 17.8287 34.5202 17.9073 34.5304 17.9846C34.5407 18.0619 34.566 18.1365 34.605 18.204L35.0327 18.9445ZM31.2337 22.0102L31.9742 22.4375C32.2588 22.6013 32.6218 22.5034 32.7855 22.2201C32.8641 22.0836 32.8853 21.9216 32.8446 21.7695C32.8038 21.6174 32.7043 21.4877 32.568 21.4088L31.8275 20.9815C31.76 20.9425 31.6854 20.9171 31.6081 20.9069C31.5308 20.8967 31.4522 20.9018 31.3768 20.922C31.3015 20.9422 31.2309 20.9771 31.169 21.0246C31.1071 21.0721 31.0552 21.1314 31.0163 21.199C30.9377 21.3354 30.9164 21.4975 30.9572 21.6496C30.9979 21.8017 31.0974 21.9314 31.2337 22.0102ZM30.2173 26.991H31.0723C31.4002 26.991 31.6661 26.7255 31.6661 26.3972C31.6661 26.069 31.4002 25.8035 31.0723 25.8035H30.2173C29.8894 25.8035 29.6235 26.069 29.6235 26.3972C29.6235 26.7255 29.8894 26.991 30.2173 26.991ZM48.3758 26.3973C48.3758 26.4753 48.3911 26.5525 48.421 26.6246C48.4508 26.6966 48.4945 26.7621 48.5497 26.8172C48.6048 26.8724 48.6703 26.9161 48.7423 26.9459C48.8144 26.9758 48.8916 26.9911 48.9696 26.9911H49.8245C50.1525 26.9911 50.4183 26.7255 50.4183 26.3973C50.4183 26.0691 50.1525 25.8035 49.8245 25.8035H48.9696C48.8916 25.8035 48.8144 25.8189 48.7423 25.8487C48.6703 25.8785 48.6048 25.9223 48.5497 25.9774C48.4945 26.0326 48.4508 26.098 48.421 26.1701C48.3911 26.2421 48.3758 26.3193 48.3758 26.3973ZM48.0676 22.4375L48.8081 22.0102C48.9444 21.9314 49.0439 21.8017 49.0847 21.6496C49.1254 21.4975 49.1042 21.3354 49.0256 21.199C48.8612 20.9154 48.4984 20.8168 48.2143 20.9815L47.4738 21.4088C47.3375 21.4877 47.238 21.6174 47.1973 21.7695C47.1565 21.9216 47.1778 22.0836 47.2564 22.2201C47.3352 22.3564 47.4649 22.4558 47.617 22.4966C47.7691 22.5373 47.9312 22.5161 48.0676 22.4375ZM44.1983 19.1619C44.4794 19.3243 44.8442 19.2309 45.0093 18.9445L45.4369 18.204C45.4759 18.1365 45.5012 18.0619 45.5115 17.9846C45.5217 17.9073 45.5165 17.8287 45.4964 17.7534C45.4762 17.6781 45.4414 17.6074 45.3939 17.5456C45.3465 17.4837 45.2873 17.4318 45.2197 17.3928C45.1523 17.3536 45.0777 17.3282 45.0004 17.3179C44.923 17.3076 44.8444 17.3127 44.7691 17.333C44.6937 17.3532 44.6231 17.3881 44.5613 17.4356C44.4994 17.4832 44.4476 17.5425 44.4088 17.6102L43.9812 18.3507C43.9421 18.4182 43.9168 18.4928 43.9066 18.5701C43.8963 18.6474 43.9015 18.726 43.9216 18.8013C43.9418 18.8767 43.9766 18.9473 44.0241 19.0092C44.0716 19.071 44.1308 19.1229 44.1983 19.1619Z" fill="white"/>
</svg>
