<svg width="70" height="70" viewBox="0 0 70 70" fill="none" xmlns="http://www.w3.org/2000/svg">
<rect width="69.9999" height="69.9999" rx="34.9999" fill="#0682C7"/>
<path d="M27.4128 31.1284C27.3972 30.8207 27.1347 30.5835 26.8275 30.5997C26.7543 30.6034 26.6826 30.6215 26.6164 30.6529C26.5503 30.6844 26.491 30.7285 26.4419 30.7829C26.3928 30.8372 26.3549 30.9007 26.3303 30.9697C26.3057 31.0387 26.295 31.1119 26.2987 31.1851C26.3961 33.0996 27.1188 34.9637 28.3337 36.4339C29.951 38.3909 32.1345 39.8393 34.8238 40.739C34.9 40.7564 34.988 40.792 35.1777 40.739C37.867 39.8393 40.0506 38.3909 41.6679 36.4339C42.9907 34.8331 43.7176 32.8014 43.7144 30.7132L43.7044 22.8039C43.7043 22.6949 43.6722 22.5883 43.6121 22.4973C43.552 22.4063 43.4665 22.3349 43.3663 22.292L35.2203 18.8024C35.1508 18.7726 35.0761 18.7573 35.0006 18.7573C34.9251 18.7573 34.8504 18.7726 34.781 18.8024L26.6352 22.2919C26.535 22.3348 26.4495 22.4062 26.3894 22.4972C26.3294 22.5882 26.2972 22.6948 26.2971 22.8039L26.2893 28.9253C26.2892 28.9986 26.3035 29.0711 26.3315 29.1389C26.3594 29.2066 26.4004 29.2681 26.4522 29.32C26.5039 29.3718 26.5653 29.413 26.633 29.4411C26.7006 29.4692 26.7731 29.4837 26.8464 29.4838H26.8471C26.995 29.4838 27.1367 29.4252 27.2413 29.3207C27.3459 29.2163 27.4048 29.0746 27.405 28.9267L27.4123 23.1726L35.0007 19.9217L42.5891 23.1726L42.5987 30.7146C42.6015 32.5436 41.9655 34.3222 40.8078 35.7231C39.3607 37.4742 37.4077 38.7848 35.0006 39.6206C32.5936 38.7848 30.6406 37.4741 29.1935 35.7231C28.1304 34.4368 27.498 32.805 27.4128 31.1284Z" fill="white"/>
<path d="M40.0227 29.8901C40.4224 29.5005 40.5634 28.9288 40.391 28.398C40.2185 27.8672 39.7683 27.4876 39.2159 27.4074L37.382 27.1409C37.3274 27.1329 37.2756 27.1119 37.231 27.0795C37.1864 27.0471 37.1504 27.0043 37.126 26.9549L36.3058 25.293C36.0588 24.7926 35.5587 24.4817 35.0005 24.4817C34.4424 24.4817 33.9423 24.7926 33.6953 25.293L32.8751 26.9549C32.8507 27.0043 32.8146 27.0471 32.77 27.0795C32.7254 27.1119 32.6736 27.1329 32.6191 27.1409L30.7852 27.4074C30.2329 27.4876 29.7827 27.8672 29.6102 28.398C29.4377 28.9288 29.5788 29.5005 29.9785 29.8901L31.3055 31.1836C31.345 31.2221 31.3745 31.2696 31.3915 31.322C31.4086 31.3745 31.4126 31.4303 31.4033 31.4846L31.09 33.3111C30.9957 33.8612 31.2175 34.4067 31.6691 34.7348C32.1206 35.0628 32.7079 35.1053 33.202 34.8456L34.8424 33.9832C34.8911 33.9575 34.9454 33.9441 35.0005 33.9441C35.0556 33.9441 35.1099 33.9575 35.1587 33.9832L36.799 34.8455C37.2518 35.0878 37.8741 35.0731 38.3319 34.7347C38.7834 34.4067 39.0053 33.8611 38.911 33.311L38.5977 31.4845C38.5884 31.4302 38.5924 31.3744 38.6094 31.322C38.6265 31.2696 38.656 31.222 38.6954 31.1836L40.0227 29.8901ZM37.9168 30.3849C37.7478 30.5496 37.6214 30.753 37.5485 30.9774C37.4756 31.2019 37.4584 31.4407 37.4983 31.6733L37.8116 33.4998C37.8439 33.6877 37.7278 33.7949 37.6763 33.8323C37.6249 33.8696 37.4871 33.9469 37.3183 33.8581L35.678 32.9958C35.2877 32.7914 34.7652 32.7625 34.3233 32.9957L32.683 33.858C32.5143 33.9467 32.3764 33.8695 32.325 33.8322C32.2735 33.7949 32.1574 33.6877 32.1897 33.4997L32.503 31.6731C32.5429 31.4405 32.5257 31.2017 32.4527 30.9772C32.3798 30.7528 32.2534 30.5495 32.0843 30.3847L30.7573 29.0912C30.6207 28.958 30.6516 28.8031 30.6713 28.7427C30.691 28.6822 30.7569 28.5388 30.9458 28.5113L32.7797 28.2448C33.0132 28.2109 33.235 28.1207 33.4259 27.982C33.6169 27.8433 33.7712 27.6602 33.8756 27.4486L34.6958 25.7868C34.7802 25.6158 34.9371 25.5972 35.0007 25.5972C35.0642 25.5972 35.2211 25.6157 35.3056 25.7868L36.1258 27.4486C36.2302 27.6602 36.3845 27.8433 36.5754 27.982C36.7663 28.1208 36.9881 28.211 37.2217 28.2449L39.0556 28.5114C39.2444 28.5389 39.3104 28.6823 39.3301 28.7427C39.3498 28.8032 39.3806 28.9581 39.2441 29.0913L37.9168 30.3849Z" fill="white"/>
<path d="M47.1974 50.4524L45.3454 45.1315C45.3213 45.0624 45.2839 44.9986 45.2351 44.9439C45.1864 44.8892 45.1274 44.8446 45.0615 44.8127C44.9955 44.7808 44.9239 44.7622 44.8508 44.758C44.7777 44.7538 44.7044 44.764 44.6353 44.7881C44.5661 44.8122 44.5023 44.8497 44.4476 44.8984C44.3929 44.9471 44.3483 45.0061 44.3164 45.0721C44.2846 45.138 44.266 45.2096 44.2617 45.2827C44.2575 45.3558 44.2678 45.4291 44.2918 45.4983L45.855 49.9895L42.0308 49.589C41.9492 49.5806 41.8668 49.5902 41.7894 49.6171C41.7119 49.6441 41.6414 49.6878 41.5827 49.7451L38.8335 52.4335L35.7105 43.4608C38.2594 42.5359 40.4369 41.2132 42.2091 39.5145L43.5586 43.3918C43.8387 44.0946 44.82 43.7022 44.6122 43.0251L43.0776 38.616C43.2195 38.4575 43.3584 38.2961 43.4941 38.1321C45.1802 36.0917 46.1066 33.5021 46.1025 30.8404L46.098 27.4373C46.0978 27.2895 46.0389 27.1478 45.9344 27.0433C45.8298 26.9389 45.688 26.8802 45.5402 26.8802H45.5394C45.4661 26.8803 45.3936 26.8948 45.326 26.9229C45.2583 26.9511 45.1969 26.9922 45.1452 27.0441C45.0934 27.096 45.0524 27.1575 45.0245 27.2252C44.9966 27.293 44.9823 27.3655 44.9824 27.4388L44.9869 30.842C44.9905 33.2445 44.155 35.5812 42.6341 37.4215C40.7332 39.7217 38.1655 41.4396 35.0004 42.5292C31.8353 41.4395 29.2676 39.7217 27.3667 37.4215C25.8458 35.5812 25.0103 33.2445 25.0139 30.8419L25.0265 21.4375L35.0003 17.1647L44.9743 21.4375L44.9793 25.2077C44.9795 25.3555 45.0384 25.4972 45.143 25.6017C45.2476 25.7061 45.3893 25.7648 45.5372 25.7648H45.5379C45.6858 25.7646 45.8276 25.7056 45.9321 25.6009C46.0366 25.4962 46.0952 25.3542 46.095 25.2063L46.0895 21.0687C46.0893 20.9596 46.0572 20.853 45.9971 20.762C45.937 20.671 45.8516 20.5997 45.7514 20.5567L35.2202 16.045C35.1508 16.0153 35.0761 16 35.0006 16C34.9251 16 34.8504 16.0153 34.7809 16.045L24.2497 20.5565C24.1495 20.5994 24.064 20.6708 24.0039 20.7618C23.9438 20.8528 23.9117 20.9594 23.9116 21.0684L23.8986 30.8402C23.8946 33.5021 24.821 36.0917 26.507 38.1321C26.6427 38.2961 26.7815 38.4574 26.9235 38.616L22.8038 50.4524C22.6775 50.7799 22.9669 51.2425 23.3887 51.1905L27.8259 50.7258L31.0158 53.8451C31.2605 54.1033 31.7974 54.0326 31.9325 53.6297L35.0006 44.8149L38.0686 53.6297C38.1863 53.9806 38.6707 54.1413 38.9854 53.8451L42.1752 50.7258L46.6124 51.1905C46.9811 51.2373 47.3295 50.8534 47.1974 50.4524ZM31.1677 52.4335L28.4185 49.7451C28.3598 49.6878 28.2892 49.6442 28.2118 49.6172C28.1344 49.5902 28.052 49.5806 27.9704 49.589L24.1462 49.9895L27.7921 39.5145C29.5643 41.2132 31.7418 42.5359 34.2907 43.4608L31.1677 52.4335Z" fill="white"/>
</svg>
