<svg width="70" height="70" viewBox="0 0 70 70" fill="none" xmlns="http://www.w3.org/2000/svg">
<rect width="69.9999" height="69.9999" rx="34.9999" fill="white"/>
<path d="M54.992 36.5272C54.9442 35.4187 53.8603 34.5335 51.7643 33.8955C50.1385 33.409 48.0743 33.1139 45.8428 33.0661V24.5568C45.8348 24.4133 45.795 24.2777 45.7233 24.1581C45.5001 23.1931 44.4242 22.4116 42.5194 21.8374C40.7262 21.2951 38.3831 21 35.9205 21C33.4658 21 31.1466 21.2951 29.3853 21.8374C27.9428 22.284 26.2134 23.1134 26.2134 24.5409C26.2134 24.6286 26.2214 24.7163 26.2373 24.804L26.325 28.4406C21.1447 27.4517 16.1476 30.857 15.1674 36.0328C15.0558 36.6229 15 37.213 15 37.8112C15 43.0746 19.2797 47.3572 24.5397 47.3572C26.7314 47.3572 28.8514 46.6075 30.5489 45.2199C32.0393 45.5708 33.7926 45.7622 35.6495 45.7781C36.056 47.9872 40.8378 49 45.2929 49C47.7476 49 50.0667 48.697 51.8281 48.1467C53.2706 47.7001 55 46.8627 55 45.4352V36.6787C55 36.6309 55 36.5751 54.992 36.5272ZM44.1771 28.967C44.1771 29.0706 43.7946 29.6209 42.0652 30.1473C40.4473 30.6337 38.2078 30.9208 35.9285 30.9208C33.96 30.9208 32.0313 30.7135 30.5011 30.3227C30.4772 30.3147 30.4612 30.3147 30.4373 30.3068C29.6802 29.7086 28.8434 29.2301 27.9428 28.8952L27.887 26.6463C28.4369 26.9254 29.0108 27.1487 29.6085 27.3082C31.3379 27.8106 33.5774 28.0817 35.9285 28.0817C38.3831 28.0817 40.7342 27.7867 42.5274 27.2444C43.1251 27.0689 43.7069 26.8377 44.2568 26.5506V28.64C44.1692 28.7516 44.1771 28.8553 44.1771 28.967ZM29.8635 23.3765C31.4734 22.8821 33.6252 22.603 35.9205 22.603C38.1998 22.603 40.4393 22.8821 42.0572 23.3765C43.7866 23.9029 44.1692 24.4452 44.1692 24.5488C44.1692 24.6605 43.7786 25.2108 42.0492 25.7291C40.4314 26.2156 38.1998 26.4947 35.9205 26.4947C33.7209 26.4947 31.6328 26.2395 30.0468 25.777C28.3333 25.2825 27.8552 24.7402 27.8153 24.5648C27.8153 24.5488 27.8073 24.5488 27.8073 24.5488C27.8153 24.3973 28.1819 23.8869 29.8635 23.3765ZM29.8874 43.6967C26.6438 46.6474 21.6149 46.4161 18.6661 43.1703C15.7173 39.9245 15.9484 34.8923 19.1921 31.9416C20.6505 30.6098 22.5633 29.8761 24.5397 29.8761C25.3367 29.8761 26.1257 29.9957 26.8908 30.227C29.6563 31.0883 31.7364 33.3851 32.3262 36.2162C32.4298 36.7425 32.4856 37.2848 32.4856 37.8191C32.4935 40.0601 31.5451 42.1894 29.8874 43.6967ZM31.9117 43.8721C32.5573 43.0826 33.0753 42.1974 33.4419 41.2484C34.1193 41.3042 34.8207 41.3441 35.5539 41.352V41.4956L35.6017 44.1991C34.3664 44.1831 33.1311 44.0715 31.9117 43.8721ZM34.0396 36.8701C34.5019 36.902 34.988 36.918 35.4822 36.9259L35.53 39.7491C34.9721 39.7411 34.4222 39.7172 33.8962 39.6773C34.0157 39.0632 34.0795 38.4332 34.0795 37.8112C34.0795 37.5001 34.0636 37.1891 34.0396 36.8701ZM36.0002 35.3389H35.9205C35.1554 35.3389 34.4142 35.307 33.7288 35.2592C33.426 34.1905 32.9478 33.1857 32.3023 32.2925C33.4977 32.444 34.7011 32.5238 35.9125 32.5238C38.3752 32.5238 40.7262 32.2287 42.5194 31.6864C43.1172 31.511 43.691 31.2797 44.2409 31.0006V33.09C40.8219 33.1857 37.3072 33.9034 36.0002 35.3389ZM37.0522 36.607C37.0522 36.599 37.0522 36.591 37.0602 36.5751C37.1319 36.3597 37.6978 35.8334 39.3475 35.3708C40.8936 34.9322 42.9099 34.693 45.0299 34.693H45.1654C47.4447 34.693 49.6762 34.9561 51.3021 35.4506C52.9996 35.961 53.3981 36.4873 53.4061 36.607V36.6149C53.3981 36.7346 52.9996 37.2848 51.2303 37.8112C49.5965 38.2976 47.4447 38.5608 45.1733 38.5608C42.9737 38.5608 40.8856 38.3056 39.2997 37.851C37.5862 37.3566 37.116 36.8063 37.0681 36.6389L37.0522 36.607ZM51.3658 46.6314C49.7559 47.1339 47.5961 47.413 45.3009 47.413C42.9976 47.413 40.8458 47.1418 39.2518 46.6554C37.5702 46.137 37.2196 45.6027 37.2196 45.4831V45.4671L37.1797 43.1544C37.8173 43.4654 38.4788 43.7046 39.1642 43.8801C40.8378 44.3187 42.9657 44.5659 45.1494 44.5659C47.6121 44.5659 49.9472 44.2709 51.7324 43.7286C52.3142 43.5531 52.8721 43.3218 53.4061 43.0507V45.4432H53.414C53.414 45.5548 53.0474 46.1051 51.3658 46.6314ZM53.422 40.7619H53.414C53.414 40.8416 53.3662 40.9373 53.3662 41.0251C53.3662 41.1367 52.9916 41.679 51.2702 42.2054C49.6364 42.6998 47.4607 42.9709 45.1574 42.9709C40.7422 42.9709 37.7695 41.9741 37.1478 41.2005L37.1399 40.5306L37.108 38.6964C37.6659 38.9755 38.2477 39.1988 38.8454 39.3663C40.5748 39.8687 42.8143 40.1398 45.1654 40.1398C47.5882 40.1398 49.8994 39.8528 51.6766 39.3264C52.2823 39.1589 52.8641 38.9277 53.422 38.6406V40.7619Z" fill="#0682C7"/>
<path d="M27.8854 38.7356C27.5201 37.4235 26.3366 36.522 24.9943 36.522C24.216 36.522 23.5806 35.8861 23.5806 35.0972C23.5885 34.3003 24.216 33.6644 24.9943 33.6644C25.7727 33.6644 26.4081 34.3084 26.4081 35.0972C26.4081 35.5399 26.7655 35.9022 27.2024 35.9022C27.6392 35.9022 27.9966 35.5399 27.9966 35.0972C27.9966 33.7368 27.107 32.5375 25.8124 32.1672V31.805C25.8124 31.3622 25.455 31 25.0182 31C24.5813 31 24.2239 31.3622 24.2239 31.805V32.1511C22.6275 32.5858 21.6744 34.252 22.1033 35.87C22.4527 37.1981 23.6362 38.1238 24.9943 38.1238C25.7727 38.1238 26.4081 38.7598 26.4081 39.5486C26.4081 40.3375 25.7806 40.9814 25.0023 40.9814C24.2239 40.9814 23.5885 40.3455 23.5885 39.5567C23.5885 39.1139 23.2311 38.7517 22.7943 38.7517C22.3574 38.7517 22 39.1139 22 39.5567C22.0079 40.9331 22.9134 42.1325 24.2239 42.4947V43.195C24.2239 43.6378 24.5813 44 25.0182 44C25.455 44 25.8124 43.6378 25.8124 43.195V42.4867C27.4089 42.0279 28.3381 40.3536 27.8854 38.7356Z" fill="#0682C7"/>
</svg>
