<svg width="70" height="70" viewBox="0 0 70 70" fill="none" xmlns="http://www.w3.org/2000/svg">
<rect width="69.9999" height="69.9999" rx="34.9999" fill="#0682C7"/>
<path d="M33.12 50.2133V49.4486C33.12 49.4301 33.1191 49.4116 33.1174 49.3932C32.8202 46.423 31.5217 44.4605 29.3636 43.7189L27.3174 43.0089L23.6397 39.8868C23.0799 39.4114 22.2336 39.4452 21.7129 39.963C21.2454 40.4289 21.1659 41.1389 21.488 41.6901L21.1919 41.5538L19.5276 39.5475L18.7737 37.6306C18.4992 36.9322 17.7404 36.5324 17.0093 36.7012C16.7979 36.7498 16.5992 36.843 16.4266 36.9744C16.254 37.1058 16.1113 37.2725 16.0082 37.4634C15.905 37.6542 15.8437 37.8649 15.8283 38.0813C15.8129 38.2977 15.8438 38.5149 15.919 38.7184L16.7783 41.0485C16.7924 41.0874 16.8113 41.1245 16.8339 41.1589L19.1326 44.6971C19.1457 44.7171 19.1599 44.736 19.1752 44.7542C19.9723 45.6921 20.978 46.4575 22.0837 46.968C22.9964 47.3893 24.3106 48.0584 25.1818 49.0001C25.4056 49.2419 25.6184 49.5303 25.7671 50.3032C25.4404 50.496 25.2207 50.8518 25.2207 51.2577V52.8928C25.2207 53.5034 25.7173 54 26.3279 54H32.7515C33.3621 54 33.8587 53.5034 33.8587 52.8928V51.2577C33.8587 50.7764 33.55 50.3655 33.12 50.2133ZM22.5502 45.9571C21.6007 45.5188 20.7355 44.8633 20.0462 44.0598L17.8011 40.6046L16.9631 38.3331C16.907 38.1804 16.9542 38.0542 16.9876 37.9927C17.0209 37.9313 17.1004 37.8225 17.2592 37.786C17.4572 37.7402 17.6633 37.8487 17.7379 38.038L18.5241 40.0378C18.5459 40.0926 18.5761 40.144 18.6137 40.1895L20.4158 42.3619C20.469 42.4259 20.5359 42.4773 20.6115 42.512L23.3718 43.7826L24.8272 45.4384C24.8795 45.4979 24.9438 45.5455 25.016 45.5781C25.0881 45.6107 25.1664 45.6275 25.2455 45.6274C25.3808 45.6275 25.5114 45.5782 25.6129 45.4888C25.7238 45.3913 25.7913 45.2538 25.8008 45.1065C25.8103 44.9591 25.7608 44.8141 25.6634 44.7032L24.13 42.959C24.1265 42.9549 24.1228 42.951 24.1189 42.9471L22.4876 41.1813C22.4337 41.1221 22.4048 41.0444 22.4069 40.9645C22.4089 40.8846 22.4418 40.8085 22.4986 40.7522C22.6119 40.6391 22.797 40.6316 22.9193 40.7353L26.6763 43.9251C26.7287 43.9695 26.789 44.0038 26.854 44.0262L29.0003 44.771C30.7369 45.3679 31.7484 46.9512 32.007 49.4767V50.1505H26.8709C26.6879 49.1639 26.3866 48.6629 25.9991 48.2436C24.9934 47.1571 23.549 46.4184 22.5502 45.9571ZM32.7454 52.8867H26.334V51.2637H32.7454V52.8867ZM52.5289 37.4633C52.4258 37.2724 52.2831 37.1057 52.1105 36.9743C51.9379 36.8428 51.7392 36.7497 51.5278 36.7011C50.7966 36.5324 50.0379 36.9322 49.7633 37.6306L49.0095 39.5473L47.3451 41.5538L47.0505 41.6895C47.2093 41.4173 47.2733 41.1001 47.2323 40.7876C47.1913 40.4751 47.0478 40.1851 46.8242 39.963C46.3037 39.445 45.4572 39.4114 44.8977 39.8865L41.2198 43.0086L39.1752 43.7184C37.0154 44.4605 35.7168 46.4227 35.4199 49.3931C35.4179 49.4115 35.417 49.43 35.417 49.4486V50.2133C34.9871 50.3656 34.6783 50.7761 34.6783 51.2576V52.8925C34.6783 53.5031 35.1753 53.9997 35.7855 53.9997H42.2092C42.8198 53.9997 43.3164 53.5031 43.3164 52.8925V51.2577C43.3164 50.8515 43.0967 50.4957 42.7702 50.303C42.9186 49.53 43.1318 49.2416 43.3553 48.9997C44.2265 48.0581 45.5407 47.3893 46.4534 46.9677C47.5591 46.4572 48.5651 45.6918 49.3618 44.7539C49.3775 44.736 49.3916 44.7168 49.4044 44.6968L51.7032 41.1589C51.7258 41.1242 51.7447 41.0871 51.7588 41.0482L52.6181 38.7184C52.6933 38.5149 52.7241 38.2977 52.7088 38.0813C52.6934 37.8649 52.632 37.6542 52.5289 37.4633ZM42.2032 52.8867H35.7916V51.2637H42.2032V52.8867ZM51.5739 38.3331L50.736 40.6046L48.4908 44.0598C47.8015 44.8633 46.9363 45.5188 45.9868 45.9571C44.9881 46.4184 43.544 47.1568 42.5383 48.2439C42.1507 48.6629 41.8494 49.1639 41.6665 50.1505H36.5303V49.477C36.789 46.9512 37.8005 45.3679 39.5388 44.7708L41.683 44.0265C41.7481 44.0039 41.8085 43.9695 41.8611 43.9251L45.618 40.7353C45.7405 40.6319 45.9251 40.6391 46.0388 40.7522C46.1568 40.8696 46.1617 41.0583 46.0536 41.1775L44.4184 42.9468C44.415 42.9509 44.4112 42.955 44.4074 42.959L42.874 44.7032C42.8258 44.7581 42.7888 44.822 42.7652 44.8912C42.7416 44.9604 42.7319 45.0336 42.7366 45.1065C42.7414 45.1795 42.7604 45.2508 42.7927 45.3164C42.825 45.382 42.8699 45.4406 42.9248 45.4888C43.0262 45.5784 43.1568 45.6277 43.2921 45.6274C43.4463 45.6274 43.6003 45.5637 43.7102 45.4384L45.1655 43.783L47.9258 42.5123C48.0015 42.4774 48.0684 42.426 48.1215 42.3618L49.9236 40.1894C49.9614 40.144 49.9916 40.0928 50.0132 40.0378L50.7995 38.0383C50.874 37.8487 51.0799 37.7402 51.2782 37.786C51.437 37.8225 51.5164 37.9313 51.5498 37.9927C51.578 38.0444 51.5948 38.1016 51.5989 38.1603C51.6031 38.219 51.5945 38.278 51.5739 38.3331ZM43.5318 25.9545L44.7506 26.9275L44.3367 28.431C44.2488 28.7499 44.3651 29.0813 44.6323 29.2758C44.7664 29.3738 44.9281 29.4268 45.0942 29.4272C45.2441 29.4272 45.3943 29.3836 45.527 29.2961L46.8291 28.4379L48.1314 29.2961C48.4074 29.4779 48.7585 29.47 49.0261 29.2758C49.2934 29.0816 49.4097 28.7499 49.3218 28.431L48.9078 26.9274L50.1266 25.9542C50.3849 25.7481 50.4858 25.4117 50.3838 25.0972C50.2814 24.7829 50.0019 24.5702 49.672 24.5548L48.114 24.484L47.5649 23.024C47.4487 22.7147 47.1599 22.5146 46.8291 22.5146C46.4986 22.5146 46.2098 22.7147 46.0933 23.024L45.5445 24.484L43.9864 24.5548C43.6562 24.5699 43.3767 24.7829 43.2747 25.0972C43.1726 25.4118 43.2735 25.7481 43.5318 25.9545ZM45.962 25.5793C46.0707 25.5744 46.1756 25.5376 46.2637 25.4736C46.3518 25.4096 46.4191 25.3212 46.4574 25.2193L46.8294 24.2307L47.2011 25.2193C47.2394 25.3212 47.3068 25.4097 47.3949 25.4737C47.4831 25.5377 47.588 25.5744 47.6968 25.5793L48.7518 25.6275L47.9265 26.2865C47.8414 26.3544 47.7781 26.4458 47.7444 26.5494C47.7107 26.653 47.7082 26.7642 47.7371 26.8692L48.0175 27.8877L47.1355 27.3064C47.0446 27.2464 46.9381 27.2144 46.8292 27.2144C46.7203 27.2144 46.6138 27.2464 46.5229 27.3064L45.641 27.8877L45.9214 26.8692C45.9503 26.7642 45.9477 26.653 45.9141 26.5494C45.8804 26.4459 45.8171 26.3544 45.732 26.2865L44.9067 25.6274L45.962 25.5793ZM18.4105 25.9545L19.6293 26.9275L19.2153 28.4313C19.1274 28.7499 19.2437 29.0816 19.511 29.2758C19.7786 29.47 20.1297 29.4779 20.4057 29.2961L21.708 28.4379L23.01 29.2961C23.1383 29.3813 23.2888 29.4269 23.4428 29.4271C23.6046 29.4271 23.7658 29.3764 23.9047 29.2758C24.1723 29.0813 24.2883 28.7499 24.2004 28.431L23.7864 26.9274L25.0052 25.9545C25.2635 25.7481 25.3644 25.4117 25.2624 25.0973C25.1603 24.7829 24.8809 24.5702 24.5506 24.5547L22.9926 24.484L22.4438 23.024C22.3273 22.7147 22.0385 22.5146 21.708 22.5146C21.3772 22.5146 21.0885 22.7147 20.9722 23.024L20.4234 24.484L18.8654 24.5548C18.5349 24.5699 18.2557 24.7829 18.1536 25.0972C18.0512 25.4118 18.1521 25.7481 18.4104 25.9545H18.4105ZM20.8403 25.5793C20.9491 25.5744 21.054 25.5377 21.1422 25.4737C21.2303 25.4097 21.2977 25.3212 21.3361 25.2193L21.708 24.2307L22.0796 25.2193C22.118 25.3212 22.1854 25.4097 22.2735 25.4737C22.3617 25.5377 22.4666 25.5744 22.5754 25.5793L23.6305 25.6275L22.8051 26.2865C22.72 26.3544 22.6567 26.4459 22.623 26.5494C22.5894 26.653 22.5868 26.7642 22.6157 26.8692L22.8961 27.8877L22.0141 27.3064C21.9232 27.2464 21.8167 27.2144 21.7078 27.2144C21.599 27.2144 21.4925 27.2464 21.4016 27.3064L20.5196 27.8877L20.8 26.8692C20.8289 26.7642 20.8264 26.653 20.7927 26.5494C20.7591 26.4459 20.6958 26.3544 20.6107 26.2865L19.7852 25.6274L20.8403 25.5793ZM30.9712 19.4395L32.19 20.4127L31.776 21.9162C31.6881 22.2352 31.8044 22.5665 32.0717 22.7608C32.339 22.955 32.6904 22.9631 32.9664 22.781L34.2687 21.9229L35.5707 22.7813C35.699 22.8666 35.8496 22.9121 36.0036 22.9124C36.1654 22.9124 36.3265 22.8616 36.4654 22.7608C36.733 22.5665 36.8489 22.2352 36.7611 21.9162L36.3471 20.4127L37.5659 19.4395C37.8242 19.2333 37.9251 18.8967 37.823 18.5825C37.721 18.2679 37.4416 18.0551 37.1113 18.04L35.5533 17.969L35.0042 16.5092C34.8879 16.1999 34.5992 15.9999 34.2687 15.9999C33.9379 15.9999 33.6491 16.1999 33.5329 16.5092L32.9837 17.969L31.4257 18.04C31.0955 18.0551 30.816 18.2679 30.714 18.5825C30.6119 18.8967 30.7129 19.2334 30.9712 19.4395ZM33.4012 19.0646C33.51 19.0596 33.615 19.0228 33.703 18.9587C33.7911 18.8947 33.8585 18.8062 33.8967 18.7042L34.2687 17.7156L34.6404 18.7042C34.6787 18.8062 34.7461 18.8947 34.8342 18.9588C34.9223 19.0228 35.0273 19.0596 35.1362 19.0646L36.1911 19.1125L35.3657 19.7717C35.2806 19.8396 35.2173 19.9311 35.1837 20.0347C35.15 20.1383 35.1475 20.2495 35.1765 20.3545L35.4568 21.373L34.5751 20.7914C34.4821 20.7301 34.3754 20.6994 34.2687 20.6994C34.162 20.6994 34.0553 20.7301 33.9622 20.7914L33.0803 21.373L33.3606 20.3545C33.3896 20.2495 33.3871 20.1383 33.3534 20.0347C33.3198 19.9311 33.2565 19.8396 33.1714 19.7717L32.3459 19.1125L33.4012 19.0646ZM43.6638 33.6814C43.6638 28.5009 39.4489 24.286 34.2687 24.286C29.0881 24.286 24.8733 28.5009 24.8733 33.6814C24.8733 38.8616 29.0881 43.0764 34.2687 43.0764C39.449 43.0764 43.6638 38.8616 43.6638 33.6814ZM34.2687 41.9632C29.7019 41.9632 25.9866 38.2479 25.9866 33.6814C25.9866 29.1147 29.7019 25.3993 34.2687 25.3993C38.8352 25.3993 42.5505 29.1147 42.5505 33.6814C42.5505 38.2479 38.8352 41.9632 34.2687 41.9632Z" fill="white"/>
<path d="M27.4427 33.1175C27.5884 33.1413 27.7376 33.1062 27.8575 33.0201C27.9774 32.9339 28.0582 32.8037 28.0822 32.658C28.3199 31.209 29.0688 29.8808 30.1908 28.9192C31.3247 27.9474 32.7728 27.4122 34.2685 27.4122C35.7639 27.4122 37.2123 27.9474 38.3459 28.9192C39.4678 29.8808 40.2167 31.209 40.4544 32.658C40.4758 32.7881 40.5426 32.9065 40.6431 32.992C40.7435 33.0775 40.8711 33.1246 41.003 33.1248C41.0331 33.1248 41.0636 33.1224 41.0941 33.1172C41.1662 33.1054 41.2353 33.0795 41.2974 33.041C41.3594 33.0024 41.4133 32.9521 41.456 32.8927C41.4986 32.8333 41.5291 32.7661 41.5457 32.695C41.5624 32.6238 41.5648 32.5501 41.553 32.478C41.2729 30.7701 40.3913 29.2062 39.0707 28.0741C37.7351 26.9292 36.0294 26.299 34.2685 26.299C32.5073 26.299 30.8017 26.9292 29.4663 28.0741C28.1454 29.2063 27.2638 30.7701 26.9837 32.478C26.9598 32.6237 26.9947 32.7729 27.0807 32.8928C27.1668 33.0127 27.297 33.0936 27.4427 33.1175ZM41.0941 34.2453C41.0219 34.2334 40.9481 34.2359 40.8769 34.2526C40.8057 34.2693 40.7385 34.2998 40.6791 34.3424C40.6197 34.3851 40.5693 34.439 40.5308 34.5011C40.4922 34.5633 40.4663 34.6324 40.4544 34.7046C40.2167 36.1538 39.4678 37.4816 38.3459 38.4433C37.21 39.4159 35.7639 39.9505 34.2685 39.9506C32.773 39.9506 31.3267 39.416 30.1908 38.4433C29.0688 37.4817 28.3199 36.1538 28.0822 34.7046C28.0323 34.4013 27.7459 34.1954 27.4427 34.2453C27.3705 34.2571 27.3015 34.283 27.2394 34.3216C27.1773 34.3601 27.1234 34.4105 27.0808 34.4698C27.0381 34.5292 27.0076 34.5964 26.991 34.6675C26.9743 34.7387 26.9718 34.8124 26.9837 34.8845C27.2638 36.5925 28.1454 38.1563 29.4663 39.2884C30.8016 40.4333 32.5071 41.0637 34.2685 41.0637C36.0294 41.0637 37.7351 40.4334 39.0707 39.2885C40.3913 38.1563 41.2729 36.5925 41.553 34.8846C41.5648 34.8125 41.5623 34.7388 41.5457 34.6676C41.529 34.5965 41.4985 34.5293 41.4559 34.4699C41.4133 34.4106 41.3594 34.3602 41.2973 34.3217C41.2352 34.2831 41.1662 34.2571 41.0941 34.2453Z" fill="white"/>
<path d="M34.3662 37.0932C34.5063 37.0932 34.646 36.9905 34.646 36.8787V36.5618C35.6529 36.4217 36.3429 35.7877 36.3429 34.6411C36.3429 33.373 35.4572 32.9627 34.646 32.6644V30.7715C35.2986 30.8183 35.541 31.1165 35.7648 31.1165C36.0446 31.1165 36.175 30.7622 36.175 30.5851C36.175 30.1282 35.2801 29.9325 34.646 29.9137V29.6621C34.646 29.5501 34.506 29.4475 34.3662 29.4475C34.2076 29.4475 34.0958 29.5501 34.0958 29.662V29.9325C33.21 30.0256 32.3243 30.4918 32.3243 31.6665C32.3243 32.8601 33.2567 33.1958 34.0958 33.4942V35.6851C33.1448 35.6106 32.8929 34.958 32.5853 34.958C32.3522 34.958 32.1565 35.2655 32.1565 35.4894C32.1565 35.9463 32.9395 36.5708 34.0958 36.5896V36.8786C34.0961 36.9905 34.2079 37.0932 34.3662 37.0932ZM34.5901 33.6994C35.047 33.8951 35.4105 34.1563 35.4105 34.7437C35.4105 35.2748 35.0936 35.5735 34.5901 35.6665V33.6994ZM33.2567 31.5734C33.2567 31.0887 33.6295 30.8556 34.1519 30.7901V32.4873C33.6576 32.3009 33.2567 32.1049 33.2567 31.5734Z" fill="white"/>
</svg>
