<svg width="31" height="31" viewBox="0 0 31 31" fill="none" xmlns="http://www.w3.org/2000/svg">
<path d="M30.2386 9.22294L22.1148 0.785501C21.9851 0.65121 21.8184 0.558658 21.6358 0.519684C21.4533 0.480709 21.2632 0.497084 21.09 0.566714C20.9166 0.636713 20.7681 0.756922 20.6634 0.911927C20.5587 1.06693 20.5027 1.24967 20.5026 1.43671V5.49934H20.1902C13.4713 5.49934 8.00471 10.9668 8.00471 17.6868V19.5617C8.00471 19.9966 8.31088 20.3592 8.7345 20.458C8.80339 20.4754 8.87206 20.4829 8.94072 20.4829C9.29451 20.4829 9.63318 20.2754 9.79681 19.9492C11.5541 16.4329 15.0872 14.2492 19.0179 14.2492H20.5026V18.3116C20.5026 18.4985 20.5585 18.6812 20.6632 18.8361C20.7679 18.9909 20.9166 19.1108 21.09 19.1804C21.4413 19.3241 21.8498 19.2367 22.1148 18.9616L30.2386 10.5242C30.5885 10.1605 30.5885 9.58804 30.2386 9.223V9.22294Z" fill="white"/>
<path d="M26.7517 30.499H4.25533C2.18818 30.499 0.505936 28.8167 0.505936 26.749V9.2493C0.505936 7.18184 2.18818 5.49933 4.25533 5.49933H8.00472C8.69584 5.49933 9.25444 6.05802 9.25444 6.74924C9.25444 7.44047 8.69584 7.99916 8.00472 7.99916H4.25533C3.56538 7.99916 3.00537 8.55925 3.00537 9.2493V26.749C3.00537 27.4391 3.56538 27.9992 4.25533 27.9992H26.7517C27.4414 27.9992 28.0014 27.4391 28.0014 26.749V16.7493C28.0014 16.058 28.56 15.4991 29.2511 15.4991C29.9424 15.4991 30.5011 16.058 30.5011 16.7493V26.749C30.5011 28.8167 28.8188 30.499 26.7517 30.499Z" fill="white"/>
</svg>
